G04 Layer_Color=2752767*
%FSTAX24Y24*%
%MOIN*%
G70*
G01*
G75*
%ADD32C,0.0020*%
%ADD33C,0.0027*%
D32*
X02727Y01412D02*
Y01428D01*
X02743D01*
Y01412D01*
X02727D01*
Y01612D02*
Y01628D01*
X02743D01*
Y01612D01*
X02727D01*
Y01712D02*
Y01728D01*
X02743D01*
Y01712D01*
X02727D01*
Y01812D02*
Y01828D01*
X02743D01*
Y01812D01*
X02727D01*
Y01912D02*
Y01928D01*
X02743D01*
Y01912D01*
X02727D01*
Y01512D02*
Y01528D01*
X02743D01*
Y01512D01*
X02727D01*
Y01312D02*
Y01328D01*
X02743D01*
Y01312D01*
X02727D01*
X06987Y02312D02*
Y02328D01*
X07003D01*
Y02312D01*
X06987D01*
Y02212D02*
Y02228D01*
X07003D01*
Y02212D01*
X06987D01*
Y02112D02*
Y02128D01*
X07003D01*
Y02112D01*
X06987D01*
X05747Y01737D02*
Y01753D01*
X05763D01*
Y01737D01*
X05747D01*
Y01937D02*
Y01953D01*
X05763D01*
Y01937D01*
X05747D01*
Y02337D02*
Y02353D01*
X05763D01*
Y02337D01*
X05747D01*
Y02237D02*
Y02253D01*
X05763D01*
Y02237D01*
X05747D01*
Y02137D02*
Y02153D01*
X05763D01*
Y02137D01*
X05747D01*
Y02037D02*
Y02053D01*
X05763D01*
Y02037D01*
X05747D01*
Y01837D02*
Y01853D01*
X05763D01*
Y01837D01*
X05747D01*
X04315Y02022D02*
X04307Y02038D01*
X04323D01*
X04315Y02022D01*
Y02222D02*
X04307Y02238D01*
X04323D01*
X04315Y02222D01*
X01927Y02912D02*
Y02928D01*
X01943D01*
Y02912D01*
X01927D01*
X01727D02*
Y02928D01*
X01743D01*
Y02912D01*
X01727D01*
X01527D02*
Y02928D01*
X01543D01*
Y02912D01*
X01527D01*
X01427D02*
Y02928D01*
X01443D01*
Y02912D01*
X01427D01*
X01327D02*
Y02928D01*
X01343D01*
Y02912D01*
X01327D01*
X01227D02*
Y02928D01*
X01243D01*
Y02912D01*
X01227D01*
X01627D02*
Y02928D01*
X01643D01*
Y02912D01*
X01627D01*
X01827D02*
Y02928D01*
X01843D01*
Y02912D01*
X01827D01*
X03345Y02992D02*
X03349Y02996D01*
X03353D01*
X03349Y03D01*
X03353Y03004D01*
X03349D01*
X03345Y03008D01*
X03341Y03004D01*
X03337D01*
X03341Y03D01*
X03337Y02996D01*
X03341D01*
X03345Y02992D01*
X03595Y01092D02*
X03599Y01096D01*
X03603D01*
X03599Y011D01*
X03603Y01104D01*
X03599D01*
X03595Y01108D01*
X03591Y01104D01*
X03587D01*
X03591Y011D01*
X03587Y01096D01*
X03591D01*
X03595Y01092D01*
X06545D02*
X06549Y01096D01*
X06553D01*
X06549Y011D01*
X06553Y01104D01*
X06549D01*
X06545Y01108D01*
X06541Y01104D01*
X06537D01*
X06541Y011D01*
X06537Y01096D01*
X06541D01*
X06545Y01092D01*
X06595Y02992D02*
X06599Y02996D01*
X06603D01*
X06599Y03D01*
X06603Y03004D01*
X06599D01*
X06595Y03008D01*
X06591Y03004D01*
X06587D01*
X06591Y03D01*
X06587Y02996D01*
X06591D01*
X06595Y02992D01*
D33*
X03753Y011D02*
G03*
X03753Y011I-00008J0D01*
G01*
X03853D02*
G03*
X03853Y011I-00008J0D01*
G01*
X03953D02*
G03*
X03953Y011I-00008J0D01*
G01*
X04053D02*
G03*
X04053Y011I-00008J0D01*
G01*
X04153D02*
G03*
X04153Y011I-00008J0D01*
G01*
X04253D02*
G03*
X04253Y011I-00008J0D01*
G01*
X04353D02*
G03*
X04353Y011I-00008J0D01*
G01*
X04453D02*
G03*
X04453Y011I-00008J0D01*
G01*
X05353Y03D02*
G03*
X05353Y03I-00008J0D01*
G01*
X05453D02*
G03*
X05453Y03I-00008J0D01*
G01*
X05553D02*
G03*
X05553Y03I-00008J0D01*
G01*
X05653D02*
G03*
X05653Y03I-00008J0D01*
G01*
X05753D02*
G03*
X05753Y03I-00008J0D01*
G01*
X05853D02*
G03*
X05853Y03I-00008J0D01*
G01*
X05353Y011D02*
G03*
X05353Y011I-00008J0D01*
G01*
X05253D02*
G03*
X05253Y011I-00008J0D01*
G01*
X05153D02*
G03*
X05153Y011I-00008J0D01*
G01*
X05053D02*
G03*
X05053Y011I-00008J0D01*
G01*
X04953D02*
G03*
X04953Y011I-00008J0D01*
G01*
X04853D02*
G03*
X04853Y011I-00008J0D01*
G01*
X04753D02*
G03*
X04753Y011I-00008J0D01*
G01*
X04653D02*
G03*
X04653Y011I-00008J0D01*
G01*
X06203D02*
G03*
X06203Y011I-00008J0D01*
G01*
X06103D02*
G03*
X06103Y011I-00008J0D01*
G01*
X06003D02*
G03*
X06003Y011I-00008J0D01*
G01*
X05903D02*
G03*
X05903Y011I-00008J0D01*
G01*
X05803D02*
G03*
X05803Y011I-00008J0D01*
G01*
X05703D02*
G03*
X05703Y011I-00008J0D01*
G01*
X05603D02*
G03*
X05603Y011I-00008J0D01*
G01*
X05503D02*
G03*
X05503Y011I-00008J0D01*
G01*
X04253Y03D02*
G03*
X04253Y03I-00008J0D01*
G01*
X04153D02*
G03*
X04153Y03I-00008J0D01*
G01*
X04053D02*
G03*
X04053Y03I-00008J0D01*
G01*
X03953D02*
G03*
X03953Y03I-00008J0D01*
G01*
X03853D02*
G03*
X03853Y03I-00008J0D01*
G01*
X03753D02*
G03*
X03753Y03I-00008J0D01*
G01*
X03653D02*
G03*
X03653Y03I-00008J0D01*
G01*
X03553D02*
G03*
X03553Y03I-00008J0D01*
G01*
X05153D02*
G03*
X05153Y03I-00008J0D01*
G01*
X05053D02*
G03*
X05053Y03I-00008J0D01*
G01*
X04953D02*
G03*
X04953Y03I-00008J0D01*
G01*
X04853D02*
G03*
X04853Y03I-00008J0D01*
G01*
X04753D02*
G03*
X04753Y03I-00008J0D01*
G01*
X04653D02*
G03*
X04653Y03I-00008J0D01*
G01*
X04553D02*
G03*
X04553Y03I-00008J0D01*
G01*
X04453D02*
G03*
X04453Y03I-00008J0D01*
G01*
M02*
