G04 Layer_Color=128*
%FSTAX24Y24*%
%MOIN*%
G70*
G01*
G75*
%ADD32C,0.0020*%
D32*
X02718Y0142D02*
X02752D01*
X02735Y01403D02*
Y01437D01*
X02718Y0162D02*
X02752D01*
X02735Y01603D02*
Y01637D01*
X02718Y0172D02*
X02752D01*
X02735Y01703D02*
Y01737D01*
X02718Y0182D02*
X02752D01*
X02735Y01803D02*
Y01837D01*
X02718Y0192D02*
X02752D01*
X02735Y01903D02*
Y01937D01*
X02718Y0152D02*
X02752D01*
X02735Y01503D02*
Y01537D01*
X02718Y0132D02*
X02752D01*
X02735Y01303D02*
Y01337D01*
X06978Y0232D02*
X07012D01*
X06995Y02303D02*
Y02337D01*
X06978Y0222D02*
X07012D01*
X06995Y02203D02*
Y02237D01*
X06978Y0212D02*
X07012D01*
X06995Y02103D02*
Y02137D01*
X05738Y01745D02*
X05772D01*
X05755Y01728D02*
Y01762D01*
X05738Y01945D02*
X05772D01*
X05755Y01928D02*
Y01962D01*
X05738Y02345D02*
X05772D01*
X05755Y02328D02*
Y02362D01*
X05738Y02245D02*
X05772D01*
X05755Y02228D02*
Y02262D01*
X05738Y02145D02*
X05772D01*
X05755Y02128D02*
Y02162D01*
X05738Y02045D02*
X05772D01*
X05755Y02028D02*
Y02062D01*
X05738Y01845D02*
X05772D01*
X05755Y01828D02*
Y01862D01*
X037273Y011D02*
X037627D01*
X03745Y010823D02*
Y011177D01*
X038273Y011D02*
X038627D01*
X03845Y010823D02*
Y011177D01*
X039273Y011D02*
X039627D01*
X03945Y010823D02*
Y011177D01*
X040273Y011D02*
X040627D01*
X04045Y010823D02*
Y011177D01*
X041273Y011D02*
X041627D01*
X04145Y010823D02*
Y011177D01*
X042273Y011D02*
X042627D01*
X04245Y010823D02*
Y011177D01*
X043273Y011D02*
X043627D01*
X04345Y010823D02*
Y011177D01*
X044273Y011D02*
X044627D01*
X04445Y010823D02*
Y011177D01*
X053273Y03D02*
X053627D01*
X05345Y029823D02*
Y030177D01*
X054273Y03D02*
X054627D01*
X05445Y029823D02*
Y030177D01*
X055273Y03D02*
X055627D01*
X05545Y029823D02*
Y030177D01*
X056273Y03D02*
X056627D01*
X05645Y029823D02*
Y030177D01*
X057273Y03D02*
X057627D01*
X05745Y029823D02*
Y030177D01*
X058273Y03D02*
X058627D01*
X05845Y029823D02*
Y030177D01*
X053273Y011D02*
X053627D01*
X05345Y010823D02*
Y011177D01*
X052273Y011D02*
X052627D01*
X05245Y010823D02*
Y011177D01*
X051273Y011D02*
X051627D01*
X05145Y010823D02*
Y011177D01*
X050273Y011D02*
X050627D01*
X05045Y010823D02*
Y011177D01*
X049273Y011D02*
X049627D01*
X04945Y010823D02*
Y011177D01*
X048273Y011D02*
X048627D01*
X04845Y010823D02*
Y011177D01*
X047273Y011D02*
X047627D01*
X04745Y010823D02*
Y011177D01*
X046273Y011D02*
X046627D01*
X04645Y010823D02*
Y011177D01*
X061773Y011D02*
X062127D01*
X06195Y010823D02*
Y011177D01*
X060773Y011D02*
X061127D01*
X06095Y010823D02*
Y011177D01*
X059773Y011D02*
X060127D01*
X05995Y010823D02*
Y011177D01*
X058773Y011D02*
X059127D01*
X05895Y010823D02*
Y011177D01*
X057773Y011D02*
X058127D01*
X05795Y010823D02*
Y011177D01*
X056773Y011D02*
X057127D01*
X05695Y010823D02*
Y011177D01*
X055773Y011D02*
X056127D01*
X05595Y010823D02*
Y011177D01*
X054773Y011D02*
X055127D01*
X05495Y010823D02*
Y011177D01*
X042273Y03D02*
X042627D01*
X04245Y029823D02*
Y030177D01*
X041273Y03D02*
X041627D01*
X04145Y029823D02*
Y030177D01*
X040273Y03D02*
X040627D01*
X04045Y029823D02*
Y030177D01*
X039273Y03D02*
X039627D01*
X03945Y029823D02*
Y030177D01*
X038273Y03D02*
X038627D01*
X03845Y029823D02*
Y030177D01*
X037273Y03D02*
X037627D01*
X03745Y029823D02*
Y030177D01*
X036273Y03D02*
X036627D01*
X03645Y029823D02*
Y030177D01*
X035273Y03D02*
X035627D01*
X03545Y029823D02*
Y030177D01*
X051273Y03D02*
X051627D01*
X05145Y029823D02*
Y030177D01*
X050273Y03D02*
X050627D01*
X05045Y029823D02*
Y030177D01*
X049273Y03D02*
X049627D01*
X04945Y029823D02*
Y030177D01*
X048273Y03D02*
X048627D01*
X04845Y029823D02*
Y030177D01*
X047273Y03D02*
X047627D01*
X04745Y029823D02*
Y030177D01*
X046273Y03D02*
X046627D01*
X04645Y029823D02*
Y030177D01*
X045273Y03D02*
X045627D01*
X04545Y029823D02*
Y030177D01*
X044273Y03D02*
X044627D01*
X04445Y029823D02*
Y030177D01*
X0429Y0203D02*
X0434D01*
X04315Y02005D02*
Y02055D01*
X0429Y0223D02*
X0434D01*
X04315Y02205D02*
Y02255D01*
X01918Y0292D02*
X01952D01*
X01935Y02903D02*
Y02937D01*
X01718Y0292D02*
X01752D01*
X01735Y02903D02*
Y02937D01*
X01518Y0292D02*
X01552D01*
X01535Y02903D02*
Y02937D01*
X01418Y0292D02*
X01452D01*
X01435Y02903D02*
Y02937D01*
X01318Y0292D02*
X01352D01*
X01335Y02903D02*
Y02937D01*
X01218Y0292D02*
X01252D01*
X01235Y02903D02*
Y02937D01*
X01618Y0292D02*
X01652D01*
X01635Y02903D02*
Y02937D01*
X01818Y0292D02*
X01852D01*
X01835Y02903D02*
Y02937D01*
X03284Y03D02*
X03406D01*
X03345Y02939D02*
Y03061D01*
X03534Y011D02*
X03656D01*
X03595Y01039D02*
Y01161D01*
X06484Y011D02*
X06606D01*
X06545Y01039D02*
Y01161D01*
X06534Y03D02*
X06656D01*
X06595Y02939D02*
Y03061D01*
M02*
