G04 Layer_Color=255*
%FSTAX24Y24*%
%MOIN*%
G70*
G01*
G75*
%ADD11O,0.0900X0.0750*%
%ADD12R,0.0900X0.0750*%
%ADD13R,0.0591X0.0591*%
%ADD14C,0.0591*%
%ADD15R,0.1100X0.1100*%
%ADD16C,0.1100*%
%ADD17O,0.0750X0.0900*%
%ADD18R,0.0750X0.0900*%
D11*
X02735Y0142D02*
D03*
Y0162D02*
D03*
Y0172D02*
D03*
Y0182D02*
D03*
Y0152D02*
D03*
Y0132D02*
D03*
X06995Y0232D02*
D03*
Y0222D02*
D03*
Y0212D02*
D03*
X05755Y01745D02*
D03*
Y01945D02*
D03*
Y02245D02*
D03*
Y02145D02*
D03*
Y02045D02*
D03*
Y01845D02*
D03*
D12*
X02735Y0192D02*
D03*
X05755Y02345D02*
D03*
D13*
X03745Y011D02*
D03*
X05345Y03D02*
D03*
X04645Y011D02*
D03*
X05495D02*
D03*
X03545Y03D02*
D03*
X04445D02*
D03*
D14*
X03845Y011D02*
D03*
X03945D02*
D03*
X04045D02*
D03*
X04145D02*
D03*
X04245D02*
D03*
X04345D02*
D03*
X04445D02*
D03*
X05445Y03D02*
D03*
X05545D02*
D03*
X05645D02*
D03*
X05745D02*
D03*
X05845D02*
D03*
X05345Y011D02*
D03*
X05245D02*
D03*
X05145D02*
D03*
X05045D02*
D03*
X04945D02*
D03*
X04845D02*
D03*
X04745D02*
D03*
X06195D02*
D03*
X06095D02*
D03*
X05995D02*
D03*
X05895D02*
D03*
X05795D02*
D03*
X05695D02*
D03*
X05595D02*
D03*
X04245Y03D02*
D03*
X04145D02*
D03*
X04045D02*
D03*
X03945D02*
D03*
X03845D02*
D03*
X03745D02*
D03*
X03645D02*
D03*
X05145D02*
D03*
X05045D02*
D03*
X04945D02*
D03*
X04845D02*
D03*
X04745D02*
D03*
X04645D02*
D03*
X04545D02*
D03*
D15*
X04315Y0203D02*
D03*
D16*
Y0223D02*
D03*
D17*
X01935Y0292D02*
D03*
X01735D02*
D03*
X01535D02*
D03*
X01435D02*
D03*
X01335D02*
D03*
X01635D02*
D03*
X01835D02*
D03*
D18*
X01235D02*
D03*
M02*
