G04 Layer_Color=8388736*
%FSTAX24Y24*%
%MOIN*%
G70*
G01*
G75*
%ADD23O,0.1294X0.1144*%
%ADD24R,0.1294X0.1144*%
%ADD25R,0.0984X0.0984*%
%ADD26C,0.0984*%
%ADD27R,0.1494X0.1494*%
%ADD28C,0.1494*%
%ADD29O,0.1144X0.1294*%
%ADD30R,0.1144X0.1294*%
%ADD31C,0.1614*%
D23*
X02735Y0142D02*
D03*
Y0162D02*
D03*
Y0172D02*
D03*
Y0182D02*
D03*
Y0152D02*
D03*
Y0132D02*
D03*
X06995Y0232D02*
D03*
Y0222D02*
D03*
Y0212D02*
D03*
X05755Y01745D02*
D03*
Y01945D02*
D03*
Y02245D02*
D03*
Y02145D02*
D03*
Y02045D02*
D03*
Y01845D02*
D03*
D24*
X02735Y0192D02*
D03*
X05755Y02345D02*
D03*
D25*
X03745Y011D02*
D03*
X05345Y03D02*
D03*
X04645Y011D02*
D03*
X05495D02*
D03*
X03545Y03D02*
D03*
X04445D02*
D03*
D26*
X03845Y011D02*
D03*
X03945D02*
D03*
X04045D02*
D03*
X04145D02*
D03*
X04245D02*
D03*
X04345D02*
D03*
X04445D02*
D03*
X05445Y03D02*
D03*
X05545D02*
D03*
X05645D02*
D03*
X05745D02*
D03*
X05845D02*
D03*
X05345Y011D02*
D03*
X05245D02*
D03*
X05145D02*
D03*
X05045D02*
D03*
X04945D02*
D03*
X04845D02*
D03*
X04745D02*
D03*
X06195D02*
D03*
X06095D02*
D03*
X05995D02*
D03*
X05895D02*
D03*
X05795D02*
D03*
X05695D02*
D03*
X05595D02*
D03*
X04245Y03D02*
D03*
X04145D02*
D03*
X04045D02*
D03*
X03945D02*
D03*
X03845D02*
D03*
X03745D02*
D03*
X03645D02*
D03*
X05145D02*
D03*
X05045D02*
D03*
X04945D02*
D03*
X04845D02*
D03*
X04745D02*
D03*
X04645D02*
D03*
X04545D02*
D03*
D27*
X04315Y0203D02*
D03*
D28*
Y0223D02*
D03*
D29*
X01935Y0292D02*
D03*
X01735D02*
D03*
X01535D02*
D03*
X01435D02*
D03*
X01335D02*
D03*
X01635D02*
D03*
X01835D02*
D03*
D30*
X01235D02*
D03*
D31*
X03345Y03D02*
D03*
X03595Y011D02*
D03*
X06545D02*
D03*
X06595Y03D02*
D03*
M02*
