G04 Layer_Physical_Order=1*
G04 Layer_Color=255*
%FSTAX24Y24*%
%MOIN*%
G70*
G01*
G75*
%ADD10C,0.0197*%
%ADD11O,0.0900X0.0750*%
%ADD12R,0.0900X0.0750*%
%ADD13R,0.0591X0.0591*%
%ADD14C,0.0591*%
%ADD15R,0.1100X0.1100*%
%ADD16C,0.1100*%
%ADD17O,0.0750X0.0900*%
%ADD18R,0.0750X0.0900*%
%ADD19C,0.1220*%
G36*
X071498Y029796D02*
Y011204D01*
X070496Y010202D01*
X06606D01*
X065989Y010399D01*
X066023Y010427D01*
X066124Y010549D01*
X066199Y01069D01*
X066245Y010842D01*
X066261Y011D01*
X066245Y011158D01*
X066199Y01131D01*
X066124Y011451D01*
X066023Y011573D01*
X065901Y011674D01*
X06576Y011749D01*
X065608Y011795D01*
X06545Y011811D01*
X065292Y011795D01*
X06514Y011749D01*
X064999Y011674D01*
X064877Y011573D01*
X064776Y011451D01*
X064701Y01131D01*
X064655Y011158D01*
X064639Y011D01*
X064655Y010842D01*
X064701Y01069D01*
X064776Y010549D01*
X064877Y010427D01*
X064911Y010399D01*
X06484Y010202D01*
X063101D01*
X06302Y010399D01*
X063561Y010939D01*
X063561Y010939D01*
X063608Y011001D01*
X063638Y011073D01*
X063648Y01115D01*
X063648Y01115D01*
Y0161D01*
X063638Y016177D01*
X063608Y016249D01*
X063561Y016311D01*
X063561Y016311D01*
X060211Y019661D01*
X060149Y019708D01*
X060077Y019738D01*
X06Y019748D01*
X058117D01*
X058064Y019818D01*
X058033Y020042D01*
X058052Y020068D01*
X058125Y020162D01*
X058182Y020301D01*
X058202Y02045D01*
X058182Y020599D01*
X058125Y020738D01*
X058052Y020832D01*
X058033Y020858D01*
X058033Y021042D01*
X058052Y021068D01*
X058125Y021162D01*
X058182Y021301D01*
X058202Y02145D01*
X058182Y021599D01*
X058125Y021738D01*
X058052Y021832D01*
X058033Y021858D01*
X058033Y022042D01*
X058052Y022068D01*
X058125Y022162D01*
X058182Y022301D01*
X058202Y02245D01*
X058182Y022599D01*
X058148Y022681D01*
X058197Y022878D01*
X058197D01*
Y024022D01*
X056903D01*
Y022878D01*
X056903Y022878D01*
X056952Y022681D01*
X056918Y022599D01*
X056898Y02245D01*
X056918Y022301D01*
X056975Y022162D01*
X057048Y022068D01*
X057067Y022042D01*
X057067Y021858D01*
X057048Y021832D01*
X056975Y021738D01*
X056918Y021599D01*
X056898Y02145D01*
X056918Y021301D01*
X056975Y021162D01*
X057048Y021068D01*
X057067Y021042D01*
X057067Y020858D01*
X057048Y020832D01*
X056975Y020738D01*
X056918Y020599D01*
X056898Y02045D01*
X056918Y020301D01*
X056975Y020162D01*
X057048Y020068D01*
X057067Y020042D01*
X057067Y019858D01*
X057048Y019832D01*
X056975Y019738D01*
X056918Y019599D01*
X056898Y01945D01*
X056918Y019301D01*
X056975Y019162D01*
X057048Y019068D01*
X057067Y019042D01*
X057036Y018818D01*
X056983Y018748D01*
X053948D01*
Y025927D01*
X057536Y029515D01*
X057578Y029521D01*
X057698Y02957D01*
X057801Y029649D01*
X057833Y02969D01*
X057879Y029705D01*
X058021D01*
X058067Y02969D01*
X058099Y029649D01*
X058202Y02957D01*
X058322Y029521D01*
X05845Y029504D01*
X058578Y029521D01*
X058698Y02957D01*
X058801Y029649D01*
X05888Y029752D01*
X058929Y029872D01*
X058946Y03D01*
X058929Y030128D01*
X05888Y030248D01*
X058801Y030351D01*
X058698Y03043D01*
X058578Y030479D01*
X05845Y030496D01*
X058322Y030479D01*
X058202Y03043D01*
X058099Y030351D01*
X058067Y03031D01*
X058021Y030295D01*
X057879D01*
X057833Y03031D01*
X057801Y030351D01*
X057698Y03043D01*
X057578Y030479D01*
X05745Y030496D01*
X057322Y030479D01*
X057202Y03043D01*
X057099Y030351D01*
X057067Y03031D01*
X057021Y030295D01*
X056879D01*
X056833Y03031D01*
X056801Y030351D01*
X056698Y03043D01*
X056578Y030479D01*
X05645Y030496D01*
X056322Y030479D01*
X056202Y03043D01*
X056099Y030351D01*
X056067Y03031D01*
X056021Y030295D01*
X055879D01*
X055833Y03031D01*
X055801Y030351D01*
X055698Y03043D01*
X055578Y030479D01*
X05545Y030496D01*
X055322Y030479D01*
X055202Y03043D01*
X055099Y030351D01*
X055067Y03031D01*
X055021Y030295D01*
X054879D01*
X054833Y03031D01*
X054801Y030351D01*
X054698Y03043D01*
X054578Y030479D01*
X05445Y030496D01*
X054322Y030479D01*
X054202Y03043D01*
X054139Y030382D01*
X054002Y030424D01*
X053942Y03047D01*
Y030492D01*
X052958D01*
Y029508D01*
X053942D01*
Y02953D01*
X054002Y029576D01*
X054139Y029618D01*
X054202Y02957D01*
X054322Y029521D01*
X05445Y029504D01*
X054578Y029521D01*
X054698Y02957D01*
X054801Y029649D01*
X054833Y02969D01*
X054879Y029705D01*
X055021D01*
X055067Y02969D01*
X055099Y029649D01*
X055202Y02957D01*
X055322Y029521D01*
X05545Y029504D01*
X055578Y029521D01*
X055698Y02957D01*
X055801Y029649D01*
X055833Y02969D01*
X055879Y029705D01*
X056021D01*
X056067Y02969D01*
X056099Y029649D01*
X056202Y02957D01*
X056322Y029521D01*
X056409Y029509D01*
X056471Y029401D01*
X056489Y02931D01*
X053439Y026261D01*
X053392Y026199D01*
X053362Y026127D01*
X053352Y02605D01*
Y01845D01*
X053362Y018373D01*
X053392Y018301D01*
X053439Y018239D01*
X053501Y018192D01*
X053573Y018162D01*
X05365Y018152D01*
X056983D01*
X057036Y018082D01*
X057067Y017858D01*
X057048Y017832D01*
X056975Y017738D01*
X056918Y017599D01*
X056911Y017548D01*
X05755D01*
Y01745D01*
X057648D01*
Y016876D01*
X057774Y016893D01*
X057913Y01695D01*
X058033Y017042D01*
X058117Y017152D01*
X059377D01*
X060652Y015877D01*
Y011392D01*
X060599Y011351D01*
X060567Y01131D01*
X060521Y011295D01*
X060379D01*
X060333Y01131D01*
X060301Y011351D01*
X060198Y01143D01*
X060078Y011479D01*
X05995Y011496D01*
X059822Y011479D01*
X059702Y01143D01*
X059599Y011351D01*
X059567Y01131D01*
X059521Y011295D01*
X059379D01*
X059333Y01131D01*
X059301Y011351D01*
X059198Y01143D01*
X059078Y011479D01*
X05895Y011496D01*
X058822Y011479D01*
X058702Y01143D01*
X058599Y011351D01*
X058567Y01131D01*
X058521Y011295D01*
X058379D01*
X058333Y01131D01*
X058301Y011351D01*
X058198Y01143D01*
X058078Y011479D01*
X05795Y011496D01*
X057822Y011479D01*
X057702Y01143D01*
X057599Y011351D01*
X057567Y01131D01*
X057521Y011295D01*
X057379D01*
X057333Y01131D01*
X057301Y011351D01*
X057198Y01143D01*
X057078Y011479D01*
X05695Y011496D01*
X056822Y011479D01*
X056702Y01143D01*
X056599Y011351D01*
X056567Y01131D01*
X056521Y011295D01*
X056379D01*
X056333Y01131D01*
X056301Y011351D01*
X056198Y01143D01*
X056078Y011479D01*
X05595Y011496D01*
X055822Y011479D01*
X055702Y01143D01*
X055639Y011382D01*
X055502Y011424D01*
X055442Y01147D01*
Y011492D01*
X054458D01*
Y010508D01*
X055442D01*
Y01053D01*
X055502Y010576D01*
X055639Y010618D01*
X055702Y01057D01*
X055822Y010521D01*
X05595Y010504D01*
X056078Y010521D01*
X056198Y01057D01*
X056301Y010649D01*
X056333Y01069D01*
X056379Y010705D01*
X056521D01*
X056567Y01069D01*
X056599Y010649D01*
X056702Y01057D01*
X056822Y010521D01*
X05695Y010504D01*
X057078Y010521D01*
X057198Y01057D01*
X057301Y010649D01*
X057333Y01069D01*
X057379Y010705D01*
X057521D01*
X057567Y01069D01*
X057599Y010649D01*
X057702Y01057D01*
X057822Y010521D01*
X05795Y010504D01*
X057982Y010508D01*
X058096Y010379D01*
X058021Y010202D01*
X03656D01*
X036489Y010399D01*
X036523Y010427D01*
X036624Y010549D01*
X036699Y01069D01*
X036745Y010842D01*
X036761Y011D01*
X036745Y011158D01*
X036699Y01131D01*
X036624Y011451D01*
X036523Y011573D01*
X036401Y011674D01*
X03626Y011749D01*
X036108Y011795D01*
X03595Y011811D01*
X035792Y011795D01*
X03564Y011749D01*
X035499Y011674D01*
X035377Y011573D01*
X035276Y011451D01*
X035201Y01131D01*
X035155Y011158D01*
X035139Y011D01*
X035155Y010842D01*
X035201Y01069D01*
X035276Y010549D01*
X035377Y010427D01*
X035411Y010399D01*
X03534Y010202D01*
X026604D01*
X0104Y026406D01*
Y029944D01*
X011254Y030798D01*
X03284D01*
X032911Y030601D01*
X032877Y030573D01*
X032776Y030451D01*
X032701Y03031D01*
X032655Y030158D01*
X032639Y03D01*
X032655Y029842D01*
X032701Y02969D01*
X032776Y029549D01*
X032877Y029427D01*
X032999Y029326D01*
X03314Y029251D01*
X033292Y029205D01*
X03345Y029189D01*
X033608Y029205D01*
X03376Y029251D01*
X033901Y029326D01*
X034023Y029427D01*
X034124Y029549D01*
X034199Y02969D01*
X034245Y029842D01*
X034261Y03D01*
X034245Y030158D01*
X034199Y03031D01*
X034124Y030451D01*
X034023Y030573D01*
X033989Y030601D01*
X03406Y030798D01*
X06534D01*
X065411Y030601D01*
X065377Y030573D01*
X065276Y030451D01*
X065201Y03031D01*
X065155Y030158D01*
X065139Y03D01*
X065155Y029842D01*
X065201Y02969D01*
X065276Y029549D01*
X065377Y029427D01*
X065499Y029326D01*
X06564Y029251D01*
X065792Y029205D01*
X06595Y029189D01*
X066108Y029205D01*
X06626Y029251D01*
X066401Y029326D01*
X066523Y029427D01*
X066624Y029549D01*
X066699Y02969D01*
X066745Y029842D01*
X066761Y03D01*
X066745Y030158D01*
X066699Y03031D01*
X066624Y030451D01*
X066523Y030573D01*
X066489Y030601D01*
X06656Y030798D01*
X070496D01*
X071498Y029796D01*
D02*
G37*
G36*
X063052Y015977D02*
Y011273D01*
X062625Y010846D01*
X062438Y010938D01*
X062446Y011D01*
X062429Y011128D01*
X06238Y011248D01*
X062301Y011351D01*
X062198Y01143D01*
X062078Y011479D01*
X06195Y011496D01*
X061822Y011479D01*
X061702Y01143D01*
X061599Y011351D01*
X061587Y011335D01*
X061381Y011316D01*
X061248Y011437D01*
Y016D01*
X061248Y016D01*
X061238Y016077D01*
X061208Y016149D01*
X061161Y016211D01*
X061161Y016211D01*
X059711Y017661D01*
X059649Y017708D01*
X059577Y017738D01*
X0595Y017748D01*
X058117D01*
X058064Y017818D01*
X058033Y018042D01*
X058052Y018068D01*
X058125Y018162D01*
X058182Y018301D01*
X058202Y01845D01*
X058182Y018599D01*
X058125Y018738D01*
X058052Y018832D01*
X058033Y018858D01*
X058064Y019082D01*
X058117Y019152D01*
X059877D01*
X063052Y015977D01*
D02*
G37*
%LPC*%
G36*
X05145Y030496D02*
X051322Y030479D01*
X051202Y03043D01*
X051099Y030351D01*
X051067Y03031D01*
X051021Y030295D01*
X050879D01*
X050833Y03031D01*
X050801Y030351D01*
X050698Y03043D01*
X050578Y030479D01*
X05045Y030496D01*
X050322Y030479D01*
X050202Y03043D01*
X050099Y030351D01*
X050067Y03031D01*
X050021Y030295D01*
X049879D01*
X049833Y03031D01*
X049801Y030351D01*
X049698Y03043D01*
X049578Y030479D01*
X04945Y030496D01*
X049322Y030479D01*
X049202Y03043D01*
X049099Y030351D01*
X049067Y03031D01*
X049021Y030295D01*
X048879D01*
X048833Y03031D01*
X048801Y030351D01*
X048698Y03043D01*
X048578Y030479D01*
X04845Y030496D01*
X048322Y030479D01*
X048202Y03043D01*
X048099Y030351D01*
X048067Y03031D01*
X048021Y030295D01*
X047879D01*
X047833Y03031D01*
X047801Y030351D01*
X047698Y03043D01*
X047578Y030479D01*
X04745Y030496D01*
X047322Y030479D01*
X047202Y03043D01*
X047099Y030351D01*
X047067Y03031D01*
X047021Y030295D01*
X046879D01*
X046833Y03031D01*
X046801Y030351D01*
X046698Y03043D01*
X046578Y030479D01*
X04645Y030496D01*
X046322Y030479D01*
X046202Y03043D01*
X046099Y030351D01*
X046067Y03031D01*
X046021Y030295D01*
X045879D01*
X045833Y03031D01*
X045801Y030351D01*
X045698Y03043D01*
X045578Y030479D01*
X04545Y030496D01*
X045322Y030479D01*
X045202Y03043D01*
X045139Y030382D01*
X045002Y030424D01*
X044942Y03047D01*
Y030492D01*
X043958D01*
Y029508D01*
X044942D01*
Y02953D01*
X045002Y029576D01*
X045139Y029618D01*
X045202Y02957D01*
X045322Y029521D01*
X04545Y029504D01*
X045578Y029521D01*
X045698Y02957D01*
X045801Y029649D01*
X045833Y02969D01*
X045879Y029705D01*
X046021D01*
X046067Y02969D01*
X046099Y029649D01*
X046202Y02957D01*
X046322Y029521D01*
X04645Y029504D01*
X046578Y029521D01*
X046698Y02957D01*
X046801Y029649D01*
X046833Y02969D01*
X046879Y029705D01*
X047021D01*
X047067Y02969D01*
X047099Y029649D01*
X047202Y02957D01*
X047322Y029521D01*
X04745Y029504D01*
X047578Y029521D01*
X047698Y02957D01*
X047801Y029649D01*
X047833Y02969D01*
X047879Y029705D01*
X048021D01*
X048067Y02969D01*
X048099Y029649D01*
X048202Y02957D01*
X048322Y029521D01*
X04845Y029504D01*
X048578Y029521D01*
X048698Y02957D01*
X048801Y029649D01*
X048833Y02969D01*
X048879Y029705D01*
X049021D01*
X049067Y02969D01*
X049099Y029649D01*
X049202Y02957D01*
X049322Y029521D01*
X04945Y029504D01*
X049578Y029521D01*
X049698Y02957D01*
X049801Y029649D01*
X049833Y02969D01*
X049879Y029705D01*
X050021D01*
X050067Y02969D01*
X050099Y029649D01*
X050202Y02957D01*
X050322Y029521D01*
X05045Y029504D01*
X050578Y029521D01*
X050698Y02957D01*
X050801Y029649D01*
X050833Y02969D01*
X050879Y029705D01*
X051021D01*
X051067Y02969D01*
X051099Y029649D01*
X051202Y02957D01*
X051322Y029521D01*
X05145Y029504D01*
X051578Y029521D01*
X051698Y02957D01*
X051801Y029649D01*
X05188Y029752D01*
X051929Y029872D01*
X051946Y03D01*
X051929Y030128D01*
X05188Y030248D01*
X051801Y030351D01*
X051698Y03043D01*
X051578Y030479D01*
X05145Y030496D01*
D02*
G37*
G36*
X04245D02*
X042322Y030479D01*
X042202Y03043D01*
X042099Y030351D01*
X042067Y03031D01*
X042021Y030295D01*
X041879D01*
X041833Y03031D01*
X041801Y030351D01*
X041698Y03043D01*
X041578Y030479D01*
X04145Y030496D01*
X041322Y030479D01*
X041202Y03043D01*
X041099Y030351D01*
X041067Y03031D01*
X041021Y030295D01*
X040879D01*
X040833Y03031D01*
X040801Y030351D01*
X040698Y03043D01*
X040578Y030479D01*
X04045Y030496D01*
X040322Y030479D01*
X040202Y03043D01*
X040099Y030351D01*
X040067Y03031D01*
X040021Y030295D01*
X039879D01*
X039833Y03031D01*
X039801Y030351D01*
X039698Y03043D01*
X039578Y030479D01*
X03945Y030496D01*
X039322Y030479D01*
X039202Y03043D01*
X039099Y030351D01*
X039067Y03031D01*
X039021Y030295D01*
X038879D01*
X038833Y03031D01*
X038801Y030351D01*
X038698Y03043D01*
X038578Y030479D01*
X03845Y030496D01*
X038322Y030479D01*
X038202Y03043D01*
X038099Y030351D01*
X038067Y03031D01*
X038021Y030295D01*
X037879D01*
X037833Y03031D01*
X037801Y030351D01*
X037698Y03043D01*
X037578Y030479D01*
X03745Y030496D01*
X037322Y030479D01*
X037202Y03043D01*
X037099Y030351D01*
X037067Y03031D01*
X037021Y030295D01*
X036879D01*
X036833Y03031D01*
X036801Y030351D01*
X036698Y03043D01*
X036578Y030479D01*
X03645Y030496D01*
X036322Y030479D01*
X036202Y03043D01*
X036139Y030382D01*
X036002Y030424D01*
X035942Y03047D01*
Y030492D01*
X034958D01*
Y029508D01*
X035942D01*
Y02953D01*
X036002Y029576D01*
X036139Y029618D01*
X036202Y02957D01*
X036322Y029521D01*
X03645Y029504D01*
X036578Y029521D01*
X036698Y02957D01*
X036801Y029649D01*
X036833Y02969D01*
X036879Y029705D01*
X037021D01*
X037067Y02969D01*
X037099Y029649D01*
X037202Y02957D01*
X037322Y029521D01*
X03745Y029504D01*
X037578Y029521D01*
X037698Y02957D01*
X037801Y029649D01*
X037833Y02969D01*
X037879Y029705D01*
X038021D01*
X038067Y02969D01*
X038099Y029649D01*
X038202Y02957D01*
X038322Y029521D01*
X03845Y029504D01*
X038578Y029521D01*
X038698Y02957D01*
X038801Y029649D01*
X038833Y02969D01*
X038879Y029705D01*
X039021D01*
X039067Y02969D01*
X039099Y029649D01*
X039202Y02957D01*
X039322Y029521D01*
X03945Y029504D01*
X039578Y029521D01*
X039698Y02957D01*
X039801Y029649D01*
X039833Y02969D01*
X039879Y029705D01*
X040021D01*
X040067Y02969D01*
X040099Y029649D01*
X040202Y02957D01*
X040322Y029521D01*
X04045Y029504D01*
X040578Y029521D01*
X040698Y02957D01*
X040801Y029649D01*
X040833Y02969D01*
X040879Y029705D01*
X041021D01*
X041067Y02969D01*
X041099Y029649D01*
X041202Y02957D01*
X041322Y029521D01*
X04145Y029504D01*
X041578Y029521D01*
X041698Y02957D01*
X041801Y029649D01*
X041833Y02969D01*
X041879Y029705D01*
X042021D01*
X042067Y02969D01*
X042099Y029649D01*
X042202Y02957D01*
X042322Y029521D01*
X04245Y029504D01*
X042578Y029521D01*
X042698Y02957D01*
X042801Y029649D01*
X04288Y029752D01*
X042929Y029872D01*
X042946Y03D01*
X042929Y030128D01*
X04288Y030248D01*
X042801Y030351D01*
X042698Y03043D01*
X042578Y030479D01*
X04245Y030496D01*
D02*
G37*
G36*
X01935Y029852D02*
X019201Y029832D01*
X019062Y029775D01*
X018968Y029702D01*
X018942Y029683D01*
X018758Y029683D01*
X018732Y029702D01*
X018638Y029775D01*
X018499Y029832D01*
X01835Y029852D01*
X018201Y029832D01*
X018062Y029775D01*
X017968Y029702D01*
X017942Y029683D01*
X017758Y029683D01*
X017732Y029702D01*
X017638Y029775D01*
X017499Y029832D01*
X017448Y029839D01*
Y0292D01*
X017252D01*
Y029839D01*
X017201Y029832D01*
X017062Y029775D01*
X016968Y029702D01*
X016942Y029683D01*
X016758Y029683D01*
X016732Y029702D01*
X016638Y029775D01*
X016499Y029832D01*
X01635Y029852D01*
X016201Y029832D01*
X016062Y029775D01*
X015968Y029702D01*
X015942Y029683D01*
X015758Y029683D01*
X015732Y029702D01*
X015638Y029775D01*
X015499Y029832D01*
X01535Y029852D01*
X015201Y029832D01*
X015062Y029775D01*
X014968Y029702D01*
X014942Y029683D01*
X014758Y029683D01*
X014732Y029702D01*
X014638Y029775D01*
X014499Y029832D01*
X01435Y029852D01*
X014201Y029832D01*
X014062Y029775D01*
X013968Y029702D01*
X013942Y029683D01*
X013758Y029683D01*
X013732Y029702D01*
X013638Y029775D01*
X013499Y029832D01*
X013448Y029839D01*
Y0292D01*
Y028561D01*
X013499Y028568D01*
X013638Y028625D01*
X013732Y028698D01*
X013758Y028717D01*
X013942Y028717D01*
X013968Y028698D01*
X014062Y028625D01*
X014201Y028568D01*
X01435Y028548D01*
X014499Y028568D01*
X014638Y028625D01*
X014732Y028698D01*
X014758Y028717D01*
X014942Y028717D01*
X014968Y028698D01*
X015062Y028625D01*
X015201Y028568D01*
X01535Y028548D01*
X015499Y028568D01*
X015638Y028625D01*
X015732Y028698D01*
X015758Y028717D01*
X015942Y028717D01*
X015968Y028698D01*
X016062Y028625D01*
X016201Y028568D01*
X01635Y028548D01*
X016499Y028568D01*
X016638Y028625D01*
X016732Y028698D01*
X016758Y028717D01*
X016982Y028686D01*
X017052Y028633D01*
Y02195D01*
X017062Y021873D01*
X017092Y021801D01*
X017139Y021739D01*
X018789Y020089D01*
X018789Y020089D01*
X018851Y020042D01*
X018923Y020012D01*
X019Y020002D01*
X042403D01*
Y019553D01*
X043052D01*
Y0203D01*
Y021047D01*
X042403D01*
Y020598D01*
X019123D01*
X017648Y022073D01*
Y028633D01*
X017718Y028686D01*
X017942Y028717D01*
X017968Y028698D01*
X018062Y028625D01*
X018201Y028568D01*
X01835Y028548D01*
X018499Y028568D01*
X018638Y028625D01*
X018732Y028698D01*
X018758Y028717D01*
X018942Y028717D01*
X018968Y028698D01*
X019062Y028625D01*
X019201Y028568D01*
X01935Y028548D01*
X019499Y028568D01*
X019638Y028625D01*
X019758Y028717D01*
X01985Y028837D01*
X019907Y028976D01*
X019927Y029125D01*
Y029275D01*
X019907Y029424D01*
X01985Y029563D01*
X019758Y029683D01*
X019638Y029775D01*
X019499Y029832D01*
X01935Y029852D01*
D02*
G37*
G36*
X012922Y029847D02*
Y029847D01*
X011778D01*
Y028553D01*
X012922D01*
X012922Y028553D01*
X013119Y028602D01*
X013201Y028568D01*
X013252Y028561D01*
Y0292D01*
Y029839D01*
X013201Y029832D01*
X013119Y029798D01*
X012922Y029847D01*
D02*
G37*
G36*
X04315Y02305D02*
X043004Y023036D01*
X042863Y022993D01*
X042733Y022924D01*
X042619Y022831D01*
X042526Y022717D01*
X042457Y022587D01*
X042414Y022446D01*
X0424Y0223D01*
X042414Y022154D01*
X042457Y022013D01*
X042526Y021883D01*
X042619Y021769D01*
X042733Y021676D01*
X042863Y021607D01*
X043004Y021564D01*
X04315Y02155D01*
X043296Y021564D01*
X043437Y021607D01*
X043567Y021676D01*
X043681Y021769D01*
X043774Y021883D01*
X043843Y022013D01*
X043886Y022154D01*
X0439Y0223D01*
X043886Y022446D01*
X043843Y022587D01*
X043774Y022717D01*
X043681Y022831D01*
X043567Y022924D01*
X043437Y022993D01*
X043296Y023036D01*
X04315Y02305D01*
D02*
G37*
G36*
X070025Y023777D02*
X069875D01*
X069726Y023757D01*
X069587Y0237D01*
X069467Y023608D01*
X069375Y023488D01*
X069318Y023349D01*
X069298Y0232D01*
X069318Y023051D01*
X069375Y022912D01*
X069448Y022818D01*
X069467Y022792D01*
X069467Y022608D01*
X069448Y022582D01*
X069375Y022488D01*
X069318Y022349D01*
X069298Y0222D01*
X069318Y022051D01*
X069375Y021912D01*
X069448Y021818D01*
X069467Y021792D01*
X069467Y021608D01*
X069448Y021582D01*
X069375Y021488D01*
X069318Y021349D01*
X069298Y0212D01*
X069318Y021051D01*
X069375Y020912D01*
X069467Y020792D01*
X069587Y0207D01*
X069726Y020643D01*
X069875Y020623D01*
X070025D01*
X070174Y020643D01*
X070313Y0207D01*
X070433Y020792D01*
X070525Y020912D01*
X070582Y021051D01*
X070602Y0212D01*
X070582Y021349D01*
X070525Y021488D01*
X070452Y021582D01*
X070433Y021608D01*
X070433Y021792D01*
X070452Y021818D01*
X070525Y021912D01*
X070582Y022051D01*
X070602Y0222D01*
X070582Y022349D01*
X070525Y022488D01*
X070452Y022582D01*
X070433Y022608D01*
X070433Y022792D01*
X070452Y022818D01*
X070525Y022912D01*
X070582Y023051D01*
X070602Y0232D01*
X070582Y023349D01*
X070525Y023488D01*
X070433Y023608D01*
X070313Y0237D01*
X070174Y023757D01*
X070025Y023777D01*
D02*
G37*
G36*
X043897Y021047D02*
X043248D01*
Y020398D01*
X043897D01*
Y021047D01*
D02*
G37*
G36*
Y020202D02*
X043248D01*
Y019553D01*
X043897D01*
Y020202D01*
D02*
G37*
G36*
X057452Y017352D02*
X056911D01*
X056918Y017301D01*
X056975Y017162D01*
X057067Y017042D01*
X057187Y01695D01*
X057326Y016893D01*
X057452Y016876D01*
Y017352D01*
D02*
G37*
G36*
X027997Y019772D02*
X026703D01*
Y018628D01*
X026703Y018628D01*
X026752Y018431D01*
X026718Y018349D01*
X026698Y0182D01*
X026718Y018051D01*
X026775Y017912D01*
X026848Y017818D01*
X026867Y017792D01*
X026867Y017608D01*
X026848Y017582D01*
X026775Y017488D01*
X026718Y017349D01*
X026698Y0172D01*
X026718Y017051D01*
X026775Y016912D01*
X026848Y016818D01*
X026867Y016792D01*
X026867Y016608D01*
X026848Y016582D01*
X026775Y016488D01*
X026718Y016349D01*
X026698Y0162D01*
X026718Y016051D01*
X026775Y015912D01*
X026848Y015818D01*
X026867Y015792D01*
X026867Y015608D01*
X026848Y015582D01*
X026775Y015488D01*
X026718Y015349D01*
X026698Y0152D01*
X026718Y015051D01*
X026775Y014912D01*
X026848Y014818D01*
X026867Y014792D01*
X026867Y014608D01*
X026848Y014582D01*
X026775Y014488D01*
X026718Y014349D01*
X026698Y0142D01*
X026718Y014051D01*
X026775Y013912D01*
X026848Y013818D01*
X026867Y013792D01*
X026867Y013608D01*
X026848Y013582D01*
X026775Y013488D01*
X026718Y013349D01*
X026698Y0132D01*
X026718Y013051D01*
X026775Y012912D01*
X026867Y012792D01*
X026987Y0127D01*
X027126Y012643D01*
X027275Y012623D01*
X027425D01*
X027574Y012643D01*
X027713Y0127D01*
X027833Y012792D01*
X027925Y012912D01*
X027982Y013051D01*
X028002Y0132D01*
X027982Y013349D01*
X027925Y013488D01*
X027852Y013582D01*
X027833Y013608D01*
X027833Y013792D01*
X027852Y013818D01*
X027925Y013912D01*
X027982Y014051D01*
X028002Y0142D01*
X027982Y014349D01*
X027925Y014488D01*
X027852Y014582D01*
X027833Y014608D01*
X027833Y014792D01*
X027852Y014818D01*
X027925Y014912D01*
X027982Y015051D01*
X028002Y0152D01*
X027982Y015349D01*
X027925Y015488D01*
X027852Y015582D01*
X027833Y015608D01*
X027833Y015792D01*
X027852Y015818D01*
X027925Y015912D01*
X027982Y016051D01*
X028002Y0162D01*
X027982Y016349D01*
X027925Y016488D01*
X027852Y016582D01*
X027833Y016608D01*
X027833Y016792D01*
X027852Y016818D01*
X027925Y016912D01*
X027982Y017051D01*
X028002Y0172D01*
X027982Y017349D01*
X027925Y017488D01*
X027852Y017582D01*
X027833Y017608D01*
X027833Y017792D01*
X027852Y017818D01*
X027925Y017912D01*
X027982Y018051D01*
X028002Y0182D01*
X027982Y018349D01*
X027948Y018431D01*
X027997Y018628D01*
X027997D01*
Y019772D01*
D02*
G37*
G36*
X05345Y011496D02*
X053322Y011479D01*
X053202Y01143D01*
X053099Y011351D01*
X053067Y01131D01*
X053021Y011295D01*
X052879D01*
X052833Y01131D01*
X052801Y011351D01*
X052698Y01143D01*
X052578Y011479D01*
X05245Y011496D01*
X052322Y011479D01*
X052202Y01143D01*
X052099Y011351D01*
X052067Y01131D01*
X052021Y011295D01*
X051879D01*
X051833Y01131D01*
X051801Y011351D01*
X051698Y01143D01*
X051578Y011479D01*
X05145Y011496D01*
X051322Y011479D01*
X051202Y01143D01*
X051099Y011351D01*
X051067Y01131D01*
X051021Y011295D01*
X050879D01*
X050833Y01131D01*
X050801Y011351D01*
X050698Y01143D01*
X050578Y011479D01*
X05045Y011496D01*
X050322Y011479D01*
X050202Y01143D01*
X050099Y011351D01*
X050067Y01131D01*
X050021Y011295D01*
X049879D01*
X049833Y01131D01*
X049801Y011351D01*
X049698Y01143D01*
X049578Y011479D01*
X04945Y011496D01*
X049322Y011479D01*
X049202Y01143D01*
X049099Y011351D01*
X049067Y01131D01*
X049021Y011295D01*
X048879D01*
X048833Y01131D01*
X048801Y011351D01*
X048698Y01143D01*
X048578Y011479D01*
X04845Y011496D01*
X048322Y011479D01*
X048202Y01143D01*
X048099Y011351D01*
X048067Y01131D01*
X048021Y011295D01*
X047879D01*
X047833Y01131D01*
X047801Y011351D01*
X047698Y01143D01*
X047578Y011479D01*
X04745Y011496D01*
X047322Y011479D01*
X047202Y01143D01*
X047139Y011382D01*
X047002Y011424D01*
X046942Y01147D01*
Y011492D01*
X045958D01*
Y010508D01*
X046942D01*
Y01053D01*
X047002Y010576D01*
X047139Y010618D01*
X047202Y01057D01*
X047322Y010521D01*
X04745Y010504D01*
X047578Y010521D01*
X047698Y01057D01*
X047801Y010649D01*
X047833Y01069D01*
X047879Y010705D01*
X048021D01*
X048067Y01069D01*
X048099Y010649D01*
X048202Y01057D01*
X048322Y010521D01*
X04845Y010504D01*
X048578Y010521D01*
X048698Y01057D01*
X048801Y010649D01*
X048833Y01069D01*
X048879Y010705D01*
X049021D01*
X049067Y01069D01*
X049099Y010649D01*
X049202Y01057D01*
X049322Y010521D01*
X04945Y010504D01*
X049578Y010521D01*
X049698Y01057D01*
X049801Y010649D01*
X049833Y01069D01*
X049879Y010705D01*
X050021D01*
X050067Y01069D01*
X050099Y010649D01*
X050202Y01057D01*
X050322Y010521D01*
X05045Y010504D01*
X050578Y010521D01*
X050698Y01057D01*
X050801Y010649D01*
X050833Y01069D01*
X050879Y010705D01*
X051021D01*
X051067Y01069D01*
X051099Y010649D01*
X051202Y01057D01*
X051322Y010521D01*
X05145Y010504D01*
X051578Y010521D01*
X051698Y01057D01*
X051801Y010649D01*
X051833Y01069D01*
X051879Y010705D01*
X052021D01*
X052067Y01069D01*
X052099Y010649D01*
X052202Y01057D01*
X052322Y010521D01*
X05245Y010504D01*
X052578Y010521D01*
X052698Y01057D01*
X052801Y010649D01*
X052833Y01069D01*
X052879Y010705D01*
X053021D01*
X053067Y01069D01*
X053099Y010649D01*
X053202Y01057D01*
X053322Y010521D01*
X05345Y010504D01*
X053578Y010521D01*
X053698Y01057D01*
X053801Y010649D01*
X05388Y010752D01*
X053929Y010872D01*
X053946Y011D01*
X053929Y011128D01*
X05388Y011248D01*
X053801Y011351D01*
X053698Y01143D01*
X053578Y011479D01*
X05345Y011496D01*
D02*
G37*
G36*
X04445D02*
X044322Y011479D01*
X044202Y01143D01*
X044099Y011351D01*
X044067Y01131D01*
X044021Y011295D01*
X043879D01*
X043833Y01131D01*
X043801Y011351D01*
X043698Y01143D01*
X043578Y011479D01*
X04345Y011496D01*
X043322Y011479D01*
X043202Y01143D01*
X043099Y011351D01*
X043067Y01131D01*
X043021Y011295D01*
X042879D01*
X042833Y01131D01*
X042801Y011351D01*
X042698Y01143D01*
X042578Y011479D01*
X04245Y011496D01*
X042322Y011479D01*
X042202Y01143D01*
X042099Y011351D01*
X042067Y01131D01*
X042021Y011295D01*
X041879D01*
X041833Y01131D01*
X041801Y011351D01*
X041698Y01143D01*
X041578Y011479D01*
X04145Y011496D01*
X041322Y011479D01*
X041202Y01143D01*
X041099Y011351D01*
X041067Y01131D01*
X041021Y011295D01*
X040879D01*
X040833Y01131D01*
X040801Y011351D01*
X040698Y01143D01*
X040578Y011479D01*
X04045Y011496D01*
X040322Y011479D01*
X040202Y01143D01*
X040099Y011351D01*
X040067Y01131D01*
X040021Y011295D01*
X039879D01*
X039833Y01131D01*
X039801Y011351D01*
X039698Y01143D01*
X039578Y011479D01*
X03945Y011496D01*
X039322Y011479D01*
X039202Y01143D01*
X039099Y011351D01*
X039067Y01131D01*
X039021Y011295D01*
X038879D01*
X038833Y01131D01*
X038801Y011351D01*
X038698Y01143D01*
X038578Y011479D01*
X03845Y011496D01*
X038322Y011479D01*
X038202Y01143D01*
X038139Y011382D01*
X038002Y011424D01*
X037942Y01147D01*
Y011492D01*
X036958D01*
Y010508D01*
X037942D01*
Y01053D01*
X038002Y010576D01*
X038139Y010618D01*
X038202Y01057D01*
X038322Y010521D01*
X03845Y010504D01*
X038578Y010521D01*
X038698Y01057D01*
X038801Y010649D01*
X038833Y01069D01*
X038879Y010705D01*
X039021D01*
X039067Y01069D01*
X039099Y010649D01*
X039202Y01057D01*
X039322Y010521D01*
X03945Y010504D01*
X039578Y010521D01*
X039698Y01057D01*
X039801Y010649D01*
X039833Y01069D01*
X039879Y010705D01*
X040021D01*
X040067Y01069D01*
X040099Y010649D01*
X040202Y01057D01*
X040322Y010521D01*
X04045Y010504D01*
X040578Y010521D01*
X040698Y01057D01*
X040801Y010649D01*
X040833Y01069D01*
X040879Y010705D01*
X041021D01*
X041067Y01069D01*
X041099Y010649D01*
X041202Y01057D01*
X041322Y010521D01*
X04145Y010504D01*
X041578Y010521D01*
X041698Y01057D01*
X041801Y010649D01*
X041833Y01069D01*
X041879Y010705D01*
X042021D01*
X042067Y01069D01*
X042099Y010649D01*
X042202Y01057D01*
X042322Y010521D01*
X04245Y010504D01*
X042578Y010521D01*
X042698Y01057D01*
X042801Y010649D01*
X042833Y01069D01*
X042879Y010705D01*
X043021D01*
X043067Y01069D01*
X043099Y010649D01*
X043202Y01057D01*
X043322Y010521D01*
X04345Y010504D01*
X043578Y010521D01*
X043698Y01057D01*
X043801Y010649D01*
X043833Y01069D01*
X043879Y010705D01*
X044021D01*
X044067Y01069D01*
X044099Y010649D01*
X044202Y01057D01*
X044322Y010521D01*
X04445Y010504D01*
X044578Y010521D01*
X044698Y01057D01*
X044801Y010649D01*
X04488Y010752D01*
X044929Y010872D01*
X044946Y011D01*
X044929Y011128D01*
X04488Y011248D01*
X044801Y011351D01*
X044698Y01143D01*
X044578Y011479D01*
X04445Y011496D01*
D02*
G37*
%LPD*%
D10*
X06095Y011D02*
Y016D01*
X0595Y01745D02*
X06095Y016D01*
X05755Y01745D02*
X0595D01*
X05795Y011D02*
X05851Y01044D01*
X05755Y01945D02*
X06D01*
X019Y0203D02*
X04315D01*
X01735Y02195D02*
X019Y0203D01*
X01735Y02195D02*
Y0292D01*
X05851Y01044D02*
X06264D01*
X06335Y01115D01*
Y0161D01*
X06Y01945D02*
X06335Y0161D01*
X05745Y02985D02*
Y03D01*
X05365Y01845D02*
X05755D01*
X05365D02*
Y02605D01*
X05745Y02985D01*
D11*
X02735Y0142D02*
D03*
Y0162D02*
D03*
Y0172D02*
D03*
Y0182D02*
D03*
Y0152D02*
D03*
Y0132D02*
D03*
X06995Y0232D02*
D03*
Y0222D02*
D03*
Y0212D02*
D03*
X05755Y01745D02*
D03*
Y01945D02*
D03*
Y02245D02*
D03*
Y02145D02*
D03*
Y02045D02*
D03*
Y01845D02*
D03*
D12*
X02735Y0192D02*
D03*
X05755Y02345D02*
D03*
D13*
X03745Y011D02*
D03*
X05345Y03D02*
D03*
X04645Y011D02*
D03*
X05495D02*
D03*
X03545Y03D02*
D03*
X04445D02*
D03*
D14*
X03845Y011D02*
D03*
X03945D02*
D03*
X04045D02*
D03*
X04145D02*
D03*
X04245D02*
D03*
X04345D02*
D03*
X04445D02*
D03*
X05445Y03D02*
D03*
X05545D02*
D03*
X05645D02*
D03*
X05745D02*
D03*
X05845D02*
D03*
X05345Y011D02*
D03*
X05245D02*
D03*
X05145D02*
D03*
X05045D02*
D03*
X04945D02*
D03*
X04845D02*
D03*
X04745D02*
D03*
X06195D02*
D03*
X06095D02*
D03*
X05995D02*
D03*
X05895D02*
D03*
X05795D02*
D03*
X05695D02*
D03*
X05595D02*
D03*
X04245Y03D02*
D03*
X04145D02*
D03*
X04045D02*
D03*
X03945D02*
D03*
X03845D02*
D03*
X03745D02*
D03*
X03645D02*
D03*
X05145D02*
D03*
X05045D02*
D03*
X04945D02*
D03*
X04845D02*
D03*
X04745D02*
D03*
X04645D02*
D03*
X04545D02*
D03*
D15*
X04315Y0203D02*
D03*
D16*
Y0223D02*
D03*
D17*
X01935Y0292D02*
D03*
X01735D02*
D03*
X01535D02*
D03*
X01435D02*
D03*
X01335D02*
D03*
X01635D02*
D03*
X01835D02*
D03*
D18*
X01235D02*
D03*
D19*
X03345Y03D02*
D03*
X03595Y011D02*
D03*
X06545D02*
D03*
X06595Y03D02*
D03*
M02*
