M48
;Layer_Color=9474304
;FILE_FORMAT=2:4
INCH,LZ
;TYPE=PLATED
T1F00S00C0.0310
T2F00S00C0.0320
T3F00S00C0.0340
T4F00S00C0.0394
%
T01
X0379Y02695
Y03045
X03795Y03395
Y03745
T02
X0473Y0246
Y0256
Y0266
X04345
Y0256
Y0246
T03
X04745Y022703
X04845
X04945
X05045
X05145
X05245
X04645
X041Y0227
X03995
X03895
T04
X054749Y028441
Y029441
Y030441
X035851Y030898
Y029898
Y028898
Y027898
Y026898
Y025898
Y024898
Y031898
Y032898
Y033898
Y035472
Y036472
Y037472
Y038472
Y039472
Y040472
Y041472
Y042472
X054749Y042417
Y041417
Y040417
Y039417
Y038417
Y037417
Y035441
Y034441
Y033441
Y032441
Y031441
M30
