G04 Layer_Color=65535*
%FSTAX24Y24*%
%MOIN*%
G70*
G01*
G75*
%ADD18C,0.0070*%
%ADD19C,0.0100*%
G36*
X040945Y023835D02*
Y023845D01*
X040595Y024195D01*
X041305D01*
X040945Y023835D01*
D02*
G37*
G36*
X052445Y023838D02*
Y023848D01*
X052095Y024198D01*
X052805D01*
X052445Y023838D01*
D02*
G37*
D18*
X03795Y03662D02*
Y03697D01*
X03833Y03477D02*
Y03662D01*
X03795Y03443D02*
Y03477D01*
X03757D02*
Y03662D01*
Y03477D02*
X03833D01*
X03757Y03662D02*
X03833D01*
X04545Y021303D02*
Y022703D01*
X05345Y021303D02*
Y023703D01*
X04545D02*
X05345D01*
X04545Y022703D02*
Y023703D01*
Y021303D02*
X05345D01*
X05196Y023383D02*
Y023683D01*
X05146Y023383D02*
X05196D01*
X05146D02*
Y023683D01*
X04744Y023393D02*
Y023693D01*
X04694Y023393D02*
X04744D01*
X04694D02*
Y023693D01*
X03795Y0213D02*
X04195D01*
X03795Y0227D02*
Y0237D01*
X04195D01*
Y0213D02*
Y0237D01*
X03795Y0213D02*
Y0227D01*
X04123Y02339D02*
Y02369D01*
X04073Y02339D02*
X04123D01*
X04073D02*
Y02369D01*
X03924Y0234D02*
Y0237D01*
X03874Y0234D02*
X03924D01*
X03874D02*
Y0237D01*
X0379Y02962D02*
Y02997D01*
X03828Y02777D02*
Y02962D01*
X0379Y02743D02*
Y02777D01*
X03752D02*
Y02962D01*
Y02777D02*
X03828D01*
X03752Y02962D02*
X03828D01*
D19*
X048017Y04415D02*
X055024D01*
X055733Y021315D02*
Y043441D01*
X055024Y04415D02*
X055733Y043441D01*
X034867Y021315D02*
X055733D01*
X034867D02*
Y043284D01*
X035733Y04415D01*
X048017D01*
X03875Y03555D02*
Y03615D01*
X03905D01*
X03915Y03605D01*
Y03585D01*
X03905Y03575D01*
X03875D01*
X03895D02*
X03915Y03555D01*
X03975Y03605D02*
X03965Y03615D01*
X03945D01*
X03935Y03605D01*
Y03595D01*
X03945Y03585D01*
X03965D01*
X03975Y03575D01*
Y03565D01*
X03965Y03555D01*
X03945D01*
X03935Y03565D01*
X040349Y03615D02*
X03995D01*
Y03555D01*
X040349D01*
X03995Y03585D02*
X04015D01*
X040549Y03555D02*
Y03615D01*
X040949Y03555D01*
Y03615D01*
X041549Y03605D02*
X041449Y03615D01*
X041249D01*
X041149Y03605D01*
Y03595D01*
X041249Y03585D01*
X041449D01*
X041549Y03575D01*
Y03565D01*
X041449Y03555D01*
X041249D01*
X041149Y03565D01*
X042049Y03615D02*
X041849D01*
X041749Y03605D01*
Y03565D01*
X041849Y03555D01*
X042049D01*
X042149Y03565D01*
Y03605D01*
X042049Y03615D01*
X042349Y03555D02*
Y03615D01*
X042649D01*
X042749Y03605D01*
Y03585D01*
X042649Y03575D01*
X042349D01*
X042549D02*
X042749Y03555D01*
X03492Y045097D02*
Y044597D01*
X03502Y044497D01*
X03522D01*
X03532Y044597D01*
Y045097D01*
X03552Y044497D02*
Y044897D01*
X03582D01*
X03592Y044797D01*
Y044497D01*
X03622D02*
X03642D01*
X036519Y044597D01*
Y044797D01*
X03642Y044897D01*
X03622D01*
X03612Y044797D01*
Y044597D01*
X03622Y044497D01*
X036719D02*
X036919D01*
X036819D01*
Y045097D01*
X036719Y044997D01*
X04591Y025093D02*
X04571D01*
X04581D01*
Y024593D01*
X04571Y024493D01*
X04561D01*
X04551Y024593D01*
X04611Y024493D02*
Y025093D01*
X04641D01*
X04651Y024993D01*
Y024793D01*
X04641Y024693D01*
X04611D01*
X04671Y024993D02*
X04681Y025093D01*
X04701D01*
X047109Y024993D01*
Y024593D01*
X04701Y024493D01*
X04681D01*
X04671Y024593D01*
Y024993D01*
X03841Y02509D02*
X03821D01*
X03831D01*
Y02459D01*
X03821Y02449D01*
X03811D01*
X03801Y02459D01*
X03861Y02449D02*
Y02509D01*
X03891D01*
X03901Y02499D01*
Y02479D01*
X03891Y02469D01*
X03861D01*
X03921Y02449D02*
X03941D01*
X03931D01*
Y02509D01*
X03921Y02499D01*
X03753Y03115D02*
Y03175D01*
X03783D01*
X03793Y03165D01*
Y03145D01*
X03783Y03135D01*
X03753D01*
X03773D02*
X03793Y03115D01*
X03813Y03175D02*
Y03115D01*
X03853D01*
X03903Y03175D02*
X03883D01*
X03873Y03165D01*
Y03125D01*
X03883Y03115D01*
X03903D01*
X039129Y03125D01*
Y03165D01*
X03903Y03175D01*
X039329Y03115D02*
Y03175D01*
X039629D01*
X039729Y03165D01*
Y03145D01*
X039629Y03135D01*
X039329D01*
X039529D02*
X039729Y03115D01*
X039929D02*
Y03155D01*
X040129Y03175D01*
X040329Y03155D01*
Y03115D01*
Y03145D01*
X039929D01*
M02*
