G04 Layer_Physical_Order=1*
G04 Layer_Color=255*
%FSTAX24Y24*%
%MOIN*%
G70*
G01*
G75*
%ADD10C,0.0276*%
%ADD11C,0.0118*%
%ADD12C,0.0157*%
%ADD13C,0.0700*%
%ADD14O,0.1000X0.0660*%
%ADD15R,0.0906X0.0906*%
%ADD16O,0.0750X0.0900*%
%ADD17R,0.0750X0.0900*%
G36*
X05705Y04315D02*
Y02175D01*
X057Y0217D01*
X055Y0197D01*
X03535D01*
X0351Y01995D01*
X0334Y02165D01*
Y0259D01*
Y0435D01*
X0351Y0452D01*
X055D01*
X05705Y04315D01*
D02*
G37*
%LPC*%
G36*
X055536Y044015D02*
X035677D01*
X03559Y044003D01*
X035508Y04397D01*
X035438Y043916D01*
X034825Y043303D01*
X034771Y043233D01*
X034738Y043151D01*
X034726Y043064D01*
Y03926D01*
X034738Y039173D01*
X034771Y039091D01*
X034825Y039021D01*
X034895Y038968D01*
X034976Y038934D01*
X035064Y038922D01*
X035202D01*
Y038823D01*
Y037823D01*
Y036823D01*
Y035823D01*
Y034823D01*
X036023D01*
X036253Y034593D01*
X036234Y034547D01*
X035202D01*
Y033248D01*
Y032248D01*
Y031248D01*
Y030248D01*
Y030104D01*
X034289Y029192D01*
X034235Y029122D01*
X034202Y02904D01*
X03419Y028953D01*
Y022954D01*
X034202Y022867D01*
X034235Y022786D01*
X034289Y022716D01*
X036861Y020144D01*
X03693Y02009D01*
X037012Y020057D01*
X037099Y020045D01*
X050208D01*
X050296Y020057D01*
X050377Y02009D01*
X050447Y020144D01*
X052359Y022056D01*
X053022D01*
Y02335D01*
X051878D01*
Y023233D01*
X051828Y023209D01*
X051738Y023278D01*
X051599Y023335D01*
X05145Y023355D01*
X051301Y023335D01*
X051162Y023278D01*
X051042Y023186D01*
X050982Y023107D01*
X050918D01*
X050858Y023186D01*
X050788Y02324D01*
Y023363D01*
X053795Y026371D01*
X055732D01*
X055819Y026383D01*
X0559Y026416D01*
X05597Y02647D01*
X05672Y02722D01*
X056773Y027289D01*
X056807Y027371D01*
X056819Y027458D01*
Y042732D01*
X056807Y042819D01*
X056773Y042901D01*
X05672Y042971D01*
X055775Y043916D01*
X055705Y04397D01*
X055623Y044003D01*
X055536Y044015D01*
D02*
G37*
%LPD*%
G36*
X03862Y043293D02*
X036547Y04122D01*
X036501Y04124D01*
Y041823D01*
Y043122D01*
X035665D01*
X035646Y043168D01*
X035817Y04334D01*
X038601D01*
X03862Y043293D01*
D02*
G37*
G36*
X03981Y036261D02*
X03988Y036208D01*
X039961Y036174D01*
X040048Y036162D01*
X044853D01*
Y034953D01*
X054047D01*
Y036162D01*
X054915D01*
X054932Y036141D01*
X054907Y036091D01*
X054099D01*
Y034791D01*
X054196D01*
Y034491D01*
X054749D01*
Y034391D01*
X054196D01*
Y033888D01*
Y033491D01*
X054749D01*
Y033391D01*
X054196D01*
Y033091D01*
X054099D01*
Y032779D01*
X051341D01*
X051254Y032767D01*
X051172Y032733D01*
X051102Y03268D01*
X04436Y025938D01*
X044025D01*
X043996Y025976D01*
X043886Y02606D01*
X04385Y026075D01*
Y026125D01*
X043886Y02614D01*
X043996Y026224D01*
X04408Y026334D01*
X044133Y026462D01*
X044151Y0266D01*
X044133Y026738D01*
X04408Y026866D01*
X043996Y026976D01*
X043886Y02706D01*
X043758Y027113D01*
X04362Y027131D01*
X043496D01*
X038288Y03234D01*
Y03352D01*
X03834Y03356D01*
X038428Y033674D01*
X038483Y033807D01*
X038502Y03395D01*
X038483Y034093D01*
X038428Y034226D01*
X03834Y03434D01*
X038226Y034428D01*
X038093Y034483D01*
X03795Y034502D01*
X037807Y034483D01*
X037674Y034428D01*
X037648Y034407D01*
X037603Y034429D01*
Y035437D01*
X037591Y035524D01*
X037558Y035606D01*
X037504Y035676D01*
X036681Y036499D01*
X036611Y036552D01*
X03653Y036586D01*
X036501Y03659D01*
Y036823D01*
Y037135D01*
X037502D01*
X03756Y03706D01*
X037674Y036972D01*
X037807Y036917D01*
X03795Y036898D01*
X038093Y036917D01*
X038226Y036972D01*
X03834Y03706D01*
X038428Y037174D01*
X038483Y037307D01*
X038502Y03745D01*
X038494Y037511D01*
X038538Y037533D01*
X03981Y036261D01*
D02*
G37*
G36*
X054099Y041768D02*
Y040768D01*
Y039768D01*
Y038768D01*
Y037768D01*
Y036838D01*
X040188D01*
X038527Y038499D01*
X038457Y038552D01*
X038376Y038586D01*
X038289Y038597D01*
X036501D01*
Y038823D01*
Y039823D01*
Y04022D01*
X039148Y042867D01*
X054099D01*
Y041768D01*
D02*
G37*
G36*
X055671Y042396D02*
Y03644D01*
X055625Y036421D01*
X055328Y036718D01*
X055349Y036768D01*
X055398D01*
Y037768D01*
Y038768D01*
Y039768D01*
Y040768D01*
Y041768D01*
Y042604D01*
X055445Y042623D01*
X055671Y042396D01*
D02*
G37*
G36*
X037658Y032031D02*
X037711Y031961D01*
X042816Y026857D01*
X042767Y026738D01*
X042749Y0266D01*
X042767Y026462D01*
X04282Y026334D01*
X042904Y026224D01*
X043014Y02614D01*
X04305Y026125D01*
Y026075D01*
X043014Y02606D01*
X042904Y025976D01*
X04282Y025866D01*
X042767Y025738D01*
X042749Y0256D01*
X042767Y025462D01*
X04282Y025334D01*
X042904Y025224D01*
X043014Y02514D01*
X04305Y025125D01*
Y025075D01*
X043014Y02506D01*
X042904Y024976D01*
X04282Y024866D01*
X042767Y024738D01*
X042749Y0246D01*
X042767Y024462D01*
X042787Y024414D01*
X041618Y023245D01*
X041572Y023265D01*
Y023347D01*
X040428D01*
Y023169D01*
X040381Y023153D01*
X040358Y023183D01*
X040288Y023237D01*
Y027D01*
X040276Y027087D01*
X040242Y027169D01*
X040189Y027239D01*
X03713Y030297D01*
Y031367D01*
X037177Y031386D01*
X037562Y031D01*
Y03088D01*
X03751Y03084D01*
X037422Y030726D01*
X037367Y030593D01*
X037348Y03045D01*
X037367Y030307D01*
X037422Y030174D01*
X03751Y03006D01*
X037624Y029972D01*
X037757Y029917D01*
X0379Y029898D01*
X038043Y029917D01*
X038176Y029972D01*
X03829Y03006D01*
X038378Y030174D01*
X038433Y030307D01*
X038452Y03045D01*
X038433Y030593D01*
X038378Y030726D01*
X03829Y03084D01*
X038238Y03088D01*
Y03114D01*
X038226Y031227D01*
X038192Y031309D01*
X038139Y031379D01*
X037603Y031914D01*
Y032033D01*
X037653Y032043D01*
X037658Y032031D01*
D02*
G37*
G36*
X036554Y029918D02*
X038203Y02827D01*
X038201Y028265D01*
X038177Y028225D01*
X038102Y028235D01*
X036545D01*
X036501Y028248D01*
Y029248D01*
Y02991D01*
X036548Y029926D01*
X036554Y029918D01*
D02*
G37*
G36*
X054099Y031779D02*
X054041D01*
X053954Y031767D01*
X053872Y031733D01*
X053802Y03168D01*
X04806Y025938D01*
X047875D01*
X047846Y025976D01*
X047736Y02606D01*
X0477Y026075D01*
Y026125D01*
X047736Y02614D01*
X047846Y026224D01*
X04793Y026334D01*
X047983Y026462D01*
X048001Y0266D01*
X047983Y026738D01*
X04793Y026866D01*
X047846Y026976D01*
X047736Y02706D01*
X047608Y027113D01*
X04747Y027131D01*
X04713D01*
X046992Y027113D01*
X046864Y02706D01*
X046754Y026976D01*
X046725Y026938D01*
X04656D01*
X046473Y026926D01*
X046391Y026892D01*
X046321Y026839D01*
X044183Y024701D01*
X044136Y024717D01*
X044133Y024738D01*
X04408Y024866D01*
X043996Y024976D01*
X043886Y02506D01*
X04385Y025075D01*
Y025125D01*
X043886Y02514D01*
X043996Y025224D01*
X044025Y025262D01*
X0445D01*
X044587Y025274D01*
X044669Y025308D01*
X044739Y025361D01*
X051481Y032103D01*
X054099D01*
Y031779D01*
D02*
G37*
G36*
Y030957D02*
Y030791D01*
Y029791D01*
Y028791D01*
Y027991D01*
X0526D01*
X052513Y02798D01*
X052432Y027946D01*
X052362Y027892D01*
X048211Y023742D01*
X048158Y023672D01*
X048124Y023591D01*
X048112Y023503D01*
Y02324D01*
X048042Y023186D01*
X047982Y023107D01*
X047918D01*
X047858Y023186D01*
X047738Y023278D01*
X047638Y023319D01*
Y024099D01*
X047736Y02414D01*
X047846Y024224D01*
X04793Y024334D01*
X047983Y024462D01*
X048001Y0246D01*
X047983Y024738D01*
X04793Y024866D01*
X047846Y024976D01*
X047736Y02506D01*
X0477Y025075D01*
Y025125D01*
X047736Y02514D01*
X047846Y025224D01*
X047875Y025262D01*
X0482D01*
X048287Y025274D01*
X048369Y025308D01*
X048439Y025361D01*
X054053Y030976D01*
X054099Y030957D01*
D02*
G37*
G36*
X046741Y026241D02*
X046754Y026224D01*
X046864Y02614D01*
X0469Y026125D01*
Y026075D01*
X046864Y02606D01*
X046754Y025976D01*
X04667Y025866D01*
X046617Y025738D01*
X046599Y0256D01*
X046617Y025462D01*
X04667Y025334D01*
X046754Y025224D01*
X046864Y02514D01*
X0469Y025125D01*
Y025075D01*
X046864Y02506D01*
X046754Y024976D01*
X04667Y024866D01*
X046617Y024738D01*
X046599Y0246D01*
X046617Y024462D01*
X04667Y024334D01*
X046754Y024224D01*
X046864Y02414D01*
X046962Y024099D01*
Y023082D01*
X04695Y023066D01*
X046923Y022999D01*
X046873D01*
X046865Y023018D01*
X046789Y023117D01*
X04669Y023193D01*
X046574Y023241D01*
X0465Y023251D01*
Y022703D01*
X04645D01*
Y022653D01*
X045971D01*
Y022628D01*
X045974Y022602D01*
X045038Y021665D01*
X042173D01*
X042152Y021715D01*
X046682Y026245D01*
X046741Y026241D01*
D02*
G37*
G36*
X039612Y02686D02*
Y023237D01*
X039542Y023183D01*
X03945Y023063D01*
X039423Y022996D01*
X039373D01*
X039365Y023015D01*
X039289Y023114D01*
X039288Y023115D01*
Y02705D01*
X039278Y027124D01*
X039318Y027149D01*
X039322Y02715D01*
X039612Y02686D01*
D02*
G37*
G36*
X038612Y02691D02*
Y023115D01*
X038611Y023114D01*
X038535Y023015D01*
X038487Y022899D01*
X038471Y022775D01*
Y02275D01*
X03895D01*
Y02265D01*
X038471D01*
Y022649D01*
X038421Y022628D01*
X038238Y022811D01*
Y02652D01*
X03829Y02656D01*
X038378Y026674D01*
X038433Y026807D01*
X038452Y02695D01*
X038443Y027012D01*
X038488Y027034D01*
X038612Y02691D01*
D02*
G37*
G36*
X043505Y024022D02*
X041735Y022253D01*
X041572D01*
Y022365D01*
X041637Y022374D01*
X041719Y022408D01*
X041789Y022461D01*
X043396Y024069D01*
X043486D01*
X043505Y024022D01*
D02*
G37*
G36*
X04695Y02234D02*
X047042Y02222D01*
X047162Y022129D01*
X047301Y022071D01*
X04745Y022051D01*
X047599Y022071D01*
X047738Y022129D01*
X047858Y02222D01*
X047918Y022299D01*
X047982D01*
X048042Y02222D01*
X048162Y022129D01*
X048301Y022071D01*
X04845Y022051D01*
X048599Y022071D01*
X048738Y022129D01*
X048858Y02222D01*
X048918Y022299D01*
X048982D01*
X049042Y02222D01*
X049162Y022129D01*
X049301Y022071D01*
X04945Y022051D01*
X049599Y022071D01*
X049738Y022129D01*
X049858Y02222D01*
X049918Y022299D01*
X049982D01*
X050042Y02222D01*
X050162Y022129D01*
X050301Y022071D01*
X050349Y022065D01*
X050365Y022017D01*
X049541Y021193D01*
X045585D01*
X045566Y021239D01*
X04648Y022153D01*
X046574Y022165D01*
X04669Y022213D01*
X046789Y022289D01*
X046865Y022389D01*
X046873Y022407D01*
X046923D01*
X04695Y02234D01*
D02*
G37*
G36*
X036878Y026969D02*
Y022688D01*
X036889Y022601D01*
X036923Y022519D01*
X036977Y022449D01*
X038187Y021239D01*
X038168Y021193D01*
X037435D01*
X035401Y023226D01*
Y024248D01*
X036501D01*
Y025248D01*
Y026248D01*
Y02728D01*
X036547Y027299D01*
X036878Y026969D01*
D02*
G37*
%LPC*%
G36*
X049222Y034815D02*
X044853D01*
Y032603D01*
X049222D01*
Y034815D01*
D02*
G37*
G36*
X053697Y041949D02*
X038403D01*
Y040453D01*
X053697D01*
Y041949D01*
D02*
G37*
G36*
X052397Y039749D02*
X039653D01*
Y038253D01*
X052397D01*
Y039749D01*
D02*
G37*
G36*
X0464Y023251D02*
X046326Y023241D01*
X04621Y023193D01*
X046111Y023117D01*
X046035Y023018D01*
X045987Y022902D01*
X045971Y022778D01*
Y022753D01*
X0464D01*
Y023251D01*
D02*
G37*
%LPD*%
D10*
X038289Y03826D02*
X040048Y0365D01*
X05545Y04595D02*
X05775Y04365D01*
X03475Y04595D02*
X05545D01*
X05775Y02115D02*
Y04365D01*
X03255Y04375D02*
X03475Y04595D01*
X03255Y02115D02*
Y04375D01*
Y02115D02*
X0349Y0188D01*
X0554D01*
X05775Y02115D01*
X055069Y0365D02*
X055536Y036032D01*
X040048Y0365D02*
X055069D01*
X035472Y029898D02*
X035851D01*
X034528Y028953D02*
X035472Y029898D01*
X034528Y022954D02*
Y028953D01*
X05045Y022703D02*
Y023503D01*
X053655Y026709D01*
X05216Y022334D02*
Y022703D01*
X037099Y020383D02*
X050208D01*
X05216Y022334D01*
X05145Y022625D02*
Y022703D01*
X049681Y020855D02*
X05145Y022625D01*
X037295Y020855D02*
X049681D01*
X034528Y022954D02*
X037099Y020383D01*
X045178Y021328D02*
X04645Y0226D01*
X038576Y021328D02*
X045178D01*
X037215Y022688D02*
X038576Y021328D01*
X035064Y023086D02*
X037295Y020855D01*
X038839Y021867D02*
X038887Y021915D01*
X038704Y021867D02*
X038839D01*
X0379Y022671D02*
X038704Y021867D01*
X041875Y021915D02*
X04656Y0266D01*
X038887Y021915D02*
X041875D01*
X036064Y04026D02*
X039009Y043205D01*
X04845Y022703D02*
Y023503D01*
X0482Y0256D02*
X054041Y031441D01*
X0473Y0256D02*
X0482D01*
X04345Y0266D02*
Y0267D01*
X03795Y0322D02*
X04345Y0267D01*
X03795Y0322D02*
Y03395D01*
X0379Y03045D02*
Y03114D01*
X037265Y031774D02*
X0379Y03114D01*
X037265Y031774D02*
Y035437D01*
X03995Y0227D02*
Y027D01*
X036793Y030157D02*
X03995Y027D01*
X036793Y030157D02*
Y034531D01*
X04645Y0226D02*
Y022703D01*
X054749Y033441D02*
Y034441D01*
X035851Y027898D02*
X038102D01*
X036064Y027685D02*
X036639D01*
X037215Y027108D01*
Y022688D02*
Y027108D01*
X035064Y023086D02*
Y028361D01*
Y03926D02*
X035851D01*
Y039472D01*
X035064Y03926D02*
Y043064D01*
X035677Y043677D01*
X055536D01*
X056481Y042732D01*
Y027458D02*
Y042732D01*
X055732Y026709D02*
X056481Y027458D01*
X053655Y026709D02*
X055732D01*
X039009Y043205D02*
X05534D01*
X056009Y042536D01*
Y027654D02*
Y042536D01*
X055536Y027181D02*
X056009Y027654D01*
X053128Y027181D02*
X055536D01*
X04945Y023503D02*
X053128Y027181D01*
X04945Y022703D02*
Y023503D01*
X035851Y03826D02*
X038289D01*
X055536Y02785D02*
Y036032D01*
X05534Y027654D02*
X055536Y02785D01*
X0526Y027654D02*
X05534D01*
X04845Y023503D02*
X0526Y027654D01*
X035851Y029898D02*
X036064Y029685D01*
X035Y028425D02*
X035064Y028361D01*
X035Y028425D02*
X03526Y028685D01*
X035639D01*
X035851Y028898D01*
Y035472D02*
X036793Y034531D01*
X038102Y027898D02*
X03895Y02705D01*
Y0227D02*
Y02705D01*
X04656Y0266D02*
X0473D01*
X0379Y022671D02*
Y02695D01*
X054041Y031441D02*
X054749D01*
X051341Y032441D02*
X054749D01*
X0445Y0256D02*
X051341Y032441D01*
X04345Y0256D02*
X0445D01*
X036443Y03626D02*
X037265Y035437D01*
X036064Y03626D02*
X036443D01*
X035851Y036472D02*
X036064Y03626D01*
X038908Y0218D02*
X041623D01*
X0473Y022853D02*
Y0246D01*
X04155Y0227D02*
X04345Y0246D01*
X041Y0227D02*
X04155D01*
X035851Y037472D02*
X037928D01*
D11*
X045168Y03391D02*
X045365D01*
X045266D01*
Y0345D01*
X045168Y034402D01*
X045955Y03391D02*
Y0345D01*
X04566Y034205D01*
X046054D01*
X04625Y03391D02*
X046447D01*
X046349D01*
Y0345D01*
X04625Y034402D01*
X046742D02*
X046841Y0345D01*
X047038D01*
X047136Y034402D01*
Y034008D01*
X047038Y03391D01*
X046841D01*
X046742Y034008D01*
Y034402D01*
X047628Y03391D02*
Y0345D01*
X047333Y034205D01*
X047726D01*
X047923Y034402D02*
X048022Y0345D01*
X048218D01*
X048317Y034402D01*
Y034304D01*
X048218Y034205D01*
X048317Y034107D01*
Y034008D01*
X048218Y03391D01*
X048022D01*
X047923Y034008D01*
Y034107D01*
X048022Y034205D01*
X047923Y034304D01*
Y034402D01*
X048022Y034205D02*
X048218D01*
X048513Y034402D02*
X048612Y0345D01*
X048809D01*
X048907Y034402D01*
Y034304D01*
X048809Y034205D01*
X04871D01*
X048809D01*
X048907Y034107D01*
Y034008D01*
X048809Y03391D01*
X048612D01*
X048513Y034008D01*
X045168Y032918D02*
X045365D01*
X045266D01*
Y033508D01*
X045168Y03341D01*
X045955Y032918D02*
Y033508D01*
X04566Y033213D01*
X046054D01*
X04625Y032918D02*
X046447D01*
X046349D01*
Y033508D01*
X04625Y03341D01*
X046742Y032918D02*
X046939D01*
X046841D01*
Y033508D01*
X046742Y03341D01*
X047628Y033508D02*
X047431Y03341D01*
X047234Y033213D01*
Y033017D01*
X047333Y032918D01*
X04753D01*
X047628Y033017D01*
Y033115D01*
X04753Y033213D01*
X047234D01*
X047825Y03341D02*
X047923Y033508D01*
X04812D01*
X048218Y03341D01*
Y033312D01*
X04812Y033213D01*
X048022D01*
X04812D01*
X048218Y033115D01*
Y033017D01*
X04812Y032918D01*
X047923D01*
X047825Y033017D01*
X048415Y032918D02*
X048612D01*
X048513D01*
Y033508D01*
X048415Y03341D01*
X045168Y035898D02*
Y035268D01*
Y035583D01*
X045588D01*
Y035898D01*
Y035268D01*
X046218Y035793D02*
X046113Y035898D01*
X045903D01*
X045798Y035793D01*
Y035373D01*
X045903Y035268D01*
X046113D01*
X046218Y035373D01*
X046428Y035268D02*
Y035898D01*
X046637Y035688D01*
X046847Y035898D01*
Y035268D01*
X047477Y035793D02*
X047372Y035898D01*
X047162D01*
X047057Y035793D01*
Y035373D01*
X047162Y035268D01*
X047372D01*
X047477Y035373D01*
X047687Y035898D02*
Y035373D01*
X047792Y035268D01*
X048002D01*
X048107Y035373D01*
Y035898D01*
X048317D02*
X048737D01*
X048527D01*
Y035268D01*
X049576Y035583D02*
X049996D01*
X051255Y035268D02*
X050836D01*
X051255Y035688D01*
Y035793D01*
X05115Y035898D01*
X050941D01*
X050836Y035793D01*
X051465D02*
X05157Y035898D01*
X05178D01*
X051885Y035793D01*
Y035373D01*
X05178Y035268D01*
X05157D01*
X051465Y035373D01*
Y035793D01*
X052095Y035268D02*
X052305D01*
X0522D01*
Y035898D01*
X052095Y035793D01*
X05262D02*
X052725Y035898D01*
X052935D01*
X05304Y035793D01*
Y035688D01*
X052935Y035583D01*
X05304Y035478D01*
Y035373D01*
X052935Y035268D01*
X052725D01*
X05262Y035373D01*
Y035478D01*
X052725Y035583D01*
X05262Y035688D01*
Y035793D01*
X052725Y035583D02*
X052935D01*
D12*
X040532Y039263D02*
X040401Y039395D01*
X040139D01*
X040007Y039263D01*
Y039132D01*
X040139Y039001D01*
X040401D01*
X040532Y03887D01*
Y038739D01*
X040401Y038607D01*
X040139D01*
X040007Y038739D01*
X040795Y038607D02*
Y039132D01*
X041057Y039395D01*
X041319Y039132D01*
Y038607D01*
Y039001D01*
X040795D01*
X041582Y039395D02*
Y038607D01*
X042107D01*
X042369Y039395D02*
X042631D01*
X0425D01*
Y038607D01*
X042369D01*
X042631D01*
X043025D02*
Y039395D01*
X04355Y038607D01*
Y039395D01*
X043812D02*
X044074D01*
X043943D01*
Y038607D01*
X043812D01*
X044074D01*
X044468Y039395D02*
X044993D01*
X04473D01*
Y038607D01*
X045255Y039395D02*
Y039263D01*
X045518Y039001D01*
X04578Y039263D01*
Y039395D01*
X045518Y039001D02*
Y038607D01*
X046829D02*
Y039395D01*
X047092Y039132D01*
X047354Y039395D01*
Y038607D01*
X04801Y039395D02*
X047748D01*
X047617Y039263D01*
Y038739D01*
X047748Y038607D01*
X04801D01*
X048141Y038739D01*
Y039263D01*
X04801Y039395D01*
X048404Y038607D02*
Y039395D01*
X048928Y038607D01*
Y039395D01*
X049191D02*
X049453D01*
X049322D01*
Y038607D01*
X049191D01*
X049453D01*
X049847Y039395D02*
X050372D01*
X050109D01*
Y038607D01*
X051028Y039395D02*
X050765D01*
X050634Y039263D01*
Y038739D01*
X050765Y038607D01*
X051028D01*
X051159Y038739D01*
Y039263D01*
X051028Y039395D01*
X051421Y038607D02*
Y039395D01*
X051815D01*
X051946Y039263D01*
Y039001D01*
X051815Y03887D01*
X051421D01*
X051684D02*
X051946Y038607D01*
X038757Y041201D02*
X039282D01*
X040857Y041463D02*
X040725Y041595D01*
X040463D01*
X040332Y041463D01*
Y040939D01*
X040463Y040807D01*
X040725D01*
X040857Y040939D01*
Y041201D01*
X040594D01*
X041119Y041332D02*
Y040807D01*
Y04107D01*
X04125Y041201D01*
X041381Y041332D01*
X041512D01*
X042037D02*
X0423D01*
X042431Y041201D01*
Y040807D01*
X042037D01*
X041906Y040939D01*
X042037Y04107D01*
X042431D01*
X043218Y041595D02*
Y040807D01*
X042824D01*
X042693Y040939D01*
Y041201D01*
X042824Y041332D01*
X043218D01*
X04348D02*
Y040939D01*
X043612Y040807D01*
X044005D01*
Y041332D01*
X044399D02*
X044661D01*
X044792Y041201D01*
Y040807D01*
X044399D01*
X044268Y040939D01*
X044399Y04107D01*
X044792D01*
X045186Y041463D02*
Y041332D01*
X045055D01*
X045317D01*
X045186D01*
Y040939D01*
X045317Y040807D01*
X046104D02*
X045842D01*
X045711Y040939D01*
Y041201D01*
X045842Y041332D01*
X046104D01*
X046235Y041201D01*
Y04107D01*
X045711D01*
X047285Y041595D02*
X04781D01*
X047547D01*
Y040807D01*
X048072Y041595D02*
Y040807D01*
Y041201D01*
X048203Y041332D01*
X048466D01*
X048597Y041201D01*
Y040807D01*
X049253D02*
X04899D01*
X048859Y040939D01*
Y041201D01*
X04899Y041332D01*
X049253D01*
X049384Y041201D01*
Y04107D01*
X048859D01*
X049646Y040807D02*
X05004D01*
X050171Y040939D01*
X05004Y04107D01*
X049778D01*
X049646Y041201D01*
X049778Y041332D01*
X050171D01*
X050434Y040807D02*
X050696D01*
X050565D01*
Y041332D01*
X050434D01*
X051089Y040807D02*
X051483D01*
X051614Y040939D01*
X051483Y04107D01*
X051221D01*
X051089Y041201D01*
X051221Y041332D01*
X051614D01*
X052664Y041201D02*
X053189D01*
D13*
X03795Y03745D02*
D03*
Y03395D02*
D03*
X0379Y03045D02*
D03*
Y02695D02*
D03*
D14*
X0473Y0266D02*
D03*
Y0256D02*
D03*
Y0246D02*
D03*
X04345Y0266D02*
D03*
Y0256D02*
D03*
Y0246D02*
D03*
D15*
X054749Y037417D02*
D03*
Y038417D02*
D03*
Y039417D02*
D03*
Y040417D02*
D03*
Y041417D02*
D03*
Y042417D02*
D03*
Y028441D02*
D03*
Y029441D02*
D03*
Y030441D02*
D03*
Y031441D02*
D03*
Y032441D02*
D03*
Y033441D02*
D03*
Y034441D02*
D03*
Y035441D02*
D03*
X035851Y042472D02*
D03*
Y041472D02*
D03*
Y035472D02*
D03*
Y036472D02*
D03*
Y037472D02*
D03*
Y038472D02*
D03*
Y039472D02*
D03*
Y040472D02*
D03*
Y027898D02*
D03*
Y028898D02*
D03*
Y029898D02*
D03*
Y030898D02*
D03*
Y031898D02*
D03*
Y032898D02*
D03*
Y033898D02*
D03*
Y026898D02*
D03*
Y025898D02*
D03*
Y024898D02*
D03*
D16*
X04745Y022703D02*
D03*
X04945D02*
D03*
X05045D02*
D03*
X05145D02*
D03*
X04845D02*
D03*
X04645D02*
D03*
X03995Y0227D02*
D03*
X03895D02*
D03*
D17*
X05245Y022703D02*
D03*
X041Y0227D02*
D03*
M02*
