G04 Layer_Color=128*
%FSTAX24Y24*%
%MOIN*%
G70*
G01*
G75*
%ADD25C,0.0050*%
D25*
X037795Y03745D02*
X038105D01*
X03795Y037295D02*
Y037605D01*
X037795Y03395D02*
X038105D01*
X03795Y033795D02*
Y034105D01*
X04714Y0266D02*
X04746D01*
X0473Y02644D02*
Y02676D01*
X04714Y0256D02*
X04746D01*
X0473Y02544D02*
Y02576D01*
X04714Y0246D02*
X04746D01*
X0473Y02444D02*
Y02476D01*
X04329Y0266D02*
X04361D01*
X04345Y02644D02*
Y02676D01*
X04329Y0256D02*
X04361D01*
X04345Y02544D02*
Y02576D01*
X04329Y0246D02*
X04361D01*
X04345Y02444D02*
Y02476D01*
X054552Y037417D02*
X054946D01*
X054749Y037221D02*
Y037614D01*
X054552Y038417D02*
X054946D01*
X054749Y038221D02*
Y038614D01*
X054552Y039417D02*
X054946D01*
X054749Y039221D02*
Y039614D01*
X054552Y040417D02*
X054946D01*
X054749Y040221D02*
Y040614D01*
X054552Y041417D02*
X054946D01*
X054749Y041221D02*
Y041614D01*
X054552Y042417D02*
X054946D01*
X054749Y042221D02*
Y042614D01*
X054552Y028441D02*
X054946D01*
X054749Y028244D02*
Y028638D01*
X054552Y029441D02*
X054946D01*
X054749Y029244D02*
Y029638D01*
X054552Y030441D02*
X054946D01*
X054749Y030244D02*
Y030638D01*
X054552Y031441D02*
X054946D01*
X054749Y031244D02*
Y031638D01*
X054552Y032441D02*
X054946D01*
X054749Y032244D02*
Y032638D01*
X054552Y033441D02*
X054946D01*
X054749Y033244D02*
Y033638D01*
X054552Y034441D02*
X054946D01*
X054749Y034244D02*
Y034638D01*
X054552Y035441D02*
X054946D01*
X054749Y035244D02*
Y035638D01*
X035654Y042472D02*
X036048D01*
X035851Y042276D02*
Y042669D01*
X035654Y041472D02*
X036048D01*
X035851Y041276D02*
Y041669D01*
X035654Y035472D02*
X036048D01*
X035851Y035276D02*
Y035669D01*
X035654Y036472D02*
X036048D01*
X035851Y036276D02*
Y036669D01*
X035654Y037472D02*
X036048D01*
X035851Y037276D02*
Y037669D01*
X035654Y038472D02*
X036048D01*
X035851Y038276D02*
Y038669D01*
X035654Y039472D02*
X036048D01*
X035851Y039276D02*
Y039669D01*
X035654Y040472D02*
X036048D01*
X035851Y040276D02*
Y040669D01*
X035654Y027898D02*
X036048D01*
X035851Y027701D02*
Y028095D01*
X035654Y028898D02*
X036048D01*
X035851Y028701D02*
Y029095D01*
X035654Y029898D02*
X036048D01*
X035851Y029701D02*
Y030095D01*
X035654Y030898D02*
X036048D01*
X035851Y030701D02*
Y031095D01*
X035654Y031898D02*
X036048D01*
X035851Y031701D02*
Y032095D01*
X035654Y032898D02*
X036048D01*
X035851Y032701D02*
Y033095D01*
X035654Y033898D02*
X036048D01*
X035851Y033701D02*
Y034095D01*
X035654Y026898D02*
X036048D01*
X035851Y026701D02*
Y027095D01*
X035654Y025898D02*
X036048D01*
X035851Y025701D02*
Y026095D01*
X035654Y024898D02*
X036048D01*
X035851Y024701D02*
Y025095D01*
X04728Y022703D02*
X04762D01*
X04745Y022533D02*
Y022873D01*
X04928Y022703D02*
X04962D01*
X04945Y022533D02*
Y022873D01*
X05028Y022703D02*
X05062D01*
X05045Y022533D02*
Y022873D01*
X05128Y022703D02*
X05162D01*
X05145Y022533D02*
Y022873D01*
X05228Y022703D02*
X05262D01*
X05245Y022533D02*
Y022873D01*
X04828Y022703D02*
X04862D01*
X04845Y022533D02*
Y022873D01*
X04628Y022703D02*
X04662D01*
X04645Y022533D02*
Y022873D01*
X04083Y0227D02*
X04117D01*
X041Y02253D02*
Y02287D01*
X03978Y0227D02*
X04012D01*
X03995Y02253D02*
Y02287D01*
X03878Y0227D02*
X03912D01*
X03895Y02253D02*
Y02287D01*
X037745Y03045D02*
X038055D01*
X0379Y030295D02*
Y030605D01*
X037745Y02695D02*
X038055D01*
X0379Y026795D02*
Y027105D01*
M02*
