G04 Layer_Color=32896*
%FSTAX24Y24*%
%MOIN*%
G70*
G01*
G75*
%ADD18C,0.0070*%
%ADD19C,0.0100*%
D18*
X047732Y024435D02*
G03*
X0477Y026799I-000556J001175D01*
G01*
X043882Y024435D02*
G03*
X04385Y026799I-000556J001175D01*
G01*
X04665Y02462D02*
Y02665D01*
X04691Y02678D01*
X04665Y02462D02*
X046898Y024447D01*
X0428Y02462D02*
Y02665D01*
X04306Y02678D01*
X0428Y02462D02*
X043048Y024447D01*
D19*
X048016Y02737D02*
Y02777D01*
X048116Y02787D01*
X048316D01*
X048416Y02777D01*
Y02737D01*
X048316Y02727D01*
X048116D01*
X048216Y02747D02*
X048016Y02727D01*
X048116D02*
X048016Y02737D01*
X047816Y02787D02*
Y02727D01*
X047416D01*
X046916Y02787D02*
X047116D01*
X047216Y02777D01*
Y02737D01*
X047116Y02727D01*
X046916D01*
X046816Y02737D01*
Y02777D01*
X046916Y02787D01*
X046616Y02727D02*
Y02787D01*
X046316D01*
X046216Y02777D01*
Y02757D01*
X046316Y02747D01*
X046616D01*
X046416D02*
X046216Y02727D01*
X046017D02*
Y02767D01*
X045817Y02787D01*
X045617Y02767D01*
Y02727D01*
Y02757D01*
X046017D01*
X044166Y02737D02*
Y02777D01*
X044266Y02787D01*
X044466D01*
X044566Y02777D01*
Y02737D01*
X044466Y02727D01*
X044266D01*
X044366Y02747D02*
X044166Y02727D01*
X044266D02*
X044166Y02737D01*
X043566Y02777D02*
X043666Y02787D01*
X043866D01*
X043966Y02777D01*
Y02767D01*
X043866Y02757D01*
X043666D01*
X043566Y02747D01*
Y02737D01*
X043666Y02727D01*
X043866D01*
X043966Y02737D01*
X042966Y02787D02*
X043366D01*
Y02727D01*
X042966D01*
X043366Y02757D02*
X043166D01*
X042766Y02727D02*
Y02787D01*
X042366Y02727D01*
Y02787D01*
X041767Y02777D02*
X041867Y02787D01*
X042067D01*
X042167Y02777D01*
Y02767D01*
X042067Y02757D01*
X041867D01*
X041767Y02747D01*
Y02737D01*
X041867Y02727D01*
X042067D01*
X042167Y02737D01*
X041267Y02787D02*
X041467D01*
X041567Y02777D01*
Y02737D01*
X041467Y02727D01*
X041267D01*
X041167Y02737D01*
Y02777D01*
X041267Y02787D01*
X040967Y02727D02*
Y02787D01*
X040667D01*
X040567Y02777D01*
Y02757D01*
X040667Y02747D01*
X040967D01*
X040767D02*
X040567Y02727D01*
M02*
